<?xml version="1.0" encoding="utf-8"?>
<!-- Generator: Adobe Illustrator 18.0.0, SVG Export Plug-In . SVG Version: 6.00 Build 0)  -->
<!DOCTYPE svg [
	<!ENTITY ns_extend "http://ns.adobe.com/Extensibility/1.0/">
	<!ENTITY ns_ai "http://ns.adobe.com/AdobeIllustrator/10.0/">
	<!ENTITY ns_graphs "http://ns.adobe.com/Graphs/1.0/">
	<!ENTITY ns_vars "http://ns.adobe.com/Variables/1.0/">
	<!ENTITY ns_imrep "http://ns.adobe.com/ImageReplacement/1.0/">
	<!ENTITY ns_sfw "http://ns.adobe.com/SaveForWeb/1.0/">
	<!ENTITY ns_custom "http://ns.adobe.com/GenericCustomNamespace/1.0/">
	<!ENTITY ns_adobe_xpath "http://ns.adobe.com/XPath/1.0/">
]>
<svg version="1.2" baseProfile="tiny" id="Layer_1" xmlns:x="&ns_extend;" xmlns:i="&ns_ai;" xmlns:graph="&ns_graphs;"
	 xmlns="http://www.w3.org/2000/svg" xmlns:xlink="http://www.w3.org/1999/xlink" x="0px" y="0px" viewBox="0 0 144 25"
	 xml:space="preserve">
<metadata>
	<sfw  xmlns="&ns_sfw;">
		<slices></slices>
		<sliceSourceBounds  height="22.3" width="137.6" bottomLeftOrigin="true" x="3.4" y="-23.6"></sliceSourceBounds>
	</sfw>
</metadata>
<rect x="3.4" y="1.7" fill="#22215E" width="34" height="21.6"/>
<g>
	<g>
		<g>
			<circle fill="#ED1C2E" cx="14" cy="12.5" r="9.5"/>
			<g>
				<path fill="#FCB131" d="M26.8,3c-2.5,0-4.7,0.9-6.4,2.5c-0.3,0.3-0.7,0.6-1,1h1.9c0.3,0.3,0.5,0.7,0.7,1h-3.4
					c-0.2,0.3-0.4,0.7-0.5,1h4.5c0.2,0.3,0.3,0.7,0.4,1h-5.3c-0.1,0.3-0.2,0.7-0.3,1h5.8c0.1,0.7,0.2,1.3,0.2,2c0,1.1-0.2,2.1-0.5,3
					h-5.3c0.1,0.3,0.2,0.7,0.4,1h4.5c-0.2,0.3-0.3,0.7-0.6,1h-3.4c0.2,0.4,0.5,0.7,0.7,1h1.9c-0.3,0.4-0.6,0.7-1,1
					c1.7,1.5,3.9,2.5,6.4,2.5c5.3,0,9.5-4.3,9.5-9.5C36.3,7.2,32.1,3,26.8,3z"/>
			</g>
		</g>
		<path fill="#FCB131" d="M35,17.8c0-0.2,0.1-0.3,0.3-0.3c0.2,0,0.3,0.1,0.3,0.3c0,0.2-0.1,0.3-0.3,0.3C35.2,18.1,35,18,35,17.8z
			 M35.4,18c0.1,0,0.2-0.1,0.2-0.2c0-0.1-0.1-0.2-0.2-0.2c-0.1,0-0.2,0.1-0.2,0.2C35.1,17.9,35.2,18,35.4,18z M35.3,17.9L35.3,17.9
			l-0.1-0.3h0.1c0,0,0,0,0.1,0c0,0,0,0,0,0.1c0,0,0,0.1,0,0.1l0.1,0.1H35.3l0-0.1h0V17.9z M35.3,17.8L35.3,17.8
			C35.4,17.8,35.4,17.8,35.3,17.8C35.4,17.8,35.4,17.7,35.3,17.8C35.4,17.7,35.4,17.7,35.3,17.8C35.4,17.7,35.4,17.7,35.3,17.8
			L35.3,17.8L35.3,17.8z"/>
	</g>
	<g>
		<g>
			<path fill="#003473" d="M11.8,13.5c-0.1,0-0.2,0-0.2,0c-0.6,0-0.9,0.2-0.9,0.6c0,0.2,0.1,0.4,0.4,0.4
				C11.5,14.5,11.8,14.1,11.8,13.5z M12.5,15.3c-0.1,0-0.9,0-0.9,0l0-0.4c-0.3,0.3-0.6,0.5-1.1,0.5c-0.6,0-0.9-0.4-0.9-1.1
				c0-1,0.7-1.5,1.8-1.5c0.1,0,0.3,0,0.4,0c0-0.1,0-0.2,0-0.3c0-0.3-0.2-0.4-0.7-0.4c-0.5,0-0.9,0.1-1.1,0.2c0-0.1,0.1-0.9,0.1-0.9
				c0.5-0.2,0.9-0.2,1.2-0.2c0.9,0,1.4,0.4,1.4,1.2c0,0.2,0,0.5-0.1,0.8C12.8,13.8,12.6,15,12.5,15.3z"/>
			<polygon fill="#003473" points="9.2,15.3 8.2,15.3 8.8,11.6 7.5,15.3 6.8,15.3 6.7,11.6 6.1,15.3 5.1,15.3 5.9,10.4 7.4,10.4 
				7.5,13.1 8.4,10.4 10,10.4 			"/>
			<path fill="#003473" d="M28.1,13.5c-0.1,0-0.2,0-0.2,0c-0.6,0-0.9,0.2-0.9,0.6c0,0.2,0.1,0.4,0.4,0.4
				C27.7,14.5,28.1,14.1,28.1,13.5z M28.8,15.3c-0.1,0-0.9,0-0.9,0l0-0.4c-0.3,0.3-0.6,0.5-1.1,0.5c-0.6,0-0.9-0.4-0.9-1.1
				c0-1,0.7-1.5,1.8-1.5c0.1,0,0.3,0,0.4,0c0-0.1,0-0.2,0-0.3c0-0.3-0.2-0.4-0.7-0.4c-0.5,0-0.9,0.1-1.1,0.2c0-0.1,0.1-0.9,0.1-0.9
				c0.5-0.2,0.9-0.2,1.2-0.2c0.9,0,1.4,0.4,1.4,1.2c0,0.2,0,0.5-0.1,0.8C29,13.8,28.8,15,28.8,15.3z"/>
			<path fill="#003473" d="M17.1,15.2c-0.3,0.1-0.5,0.1-0.7,0.1c-0.5,0-0.8-0.3-0.8-0.9c0-0.2,0.1-0.6,0.1-1
				c0.1-0.4,0.4-2.7,0.4-2.7h1l-0.1,0.6h0.6l-0.1,0.9h-0.6c-0.1,0.7-0.3,1.7-0.3,1.8c0,0.2,0.1,0.3,0.4,0.3c0.1,0,0.2,0,0.3,0
				L17.1,15.2z"/>
			<path fill="#003473" d="M20.3,15.2c-0.4,0.1-0.7,0.2-1.1,0.2c-1.2,0-1.8-0.6-1.8-1.8c0-1.3,0.8-2.3,1.8-2.3
				c0.8,0,1.4,0.6,1.4,1.4c0,0.3,0,0.6-0.1,1h-2c-0.1,0.6,0.3,0.8,0.9,0.8c0.4,0,0.7-0.1,1.1-0.2L20.3,15.2z M19.7,12.8
				c0-0.1,0.1-0.7-0.5-0.7c-0.3,0-0.6,0.2-0.7,0.7H19.7z"/>
			<path fill="#003473" d="M13.2,12.6c0,0.5,0.2,0.8,0.8,1.1c0.4,0.2,0.5,0.3,0.5,0.4c0,0.2-0.2,0.4-0.6,0.4c-0.3,0-0.6,0-0.9-0.2
				c0,0-0.1,0.9-0.1,0.9c0.2,0.1,0.4,0.1,1.1,0.1c1.1,0,1.6-0.4,1.6-1.3c0-0.5-0.2-0.9-0.7-1.1c-0.4-0.2-0.5-0.2-0.5-0.4
				c0-0.2,0.2-0.3,0.5-0.3c0.2,0,0.5,0,0.7,0.1l0.1-0.9c-0.3,0-0.7-0.1-0.9-0.1C13.5,11.3,13.1,11.9,13.2,12.6z"/>
			<path fill="#003473" d="M25.3,11.4c0.3,0,0.6,0.1,0.9,0.3l0.2-1c-0.2-0.1-0.7-0.4-1.1-0.4c-0.7,0-1.3,0.3-1.7,0.9
				c-0.6-0.2-0.8,0.2-1.2,0.6l-0.3,0.1c0-0.1,0-0.3,0-0.4h-1c-0.1,1.2-0.4,2.4-0.5,3.7l0,0.3h1c0.2-1.1,0.3-1.8,0.3-2.3l0.4-0.2
				c0.1-0.2,0.2-0.3,0.6-0.3c0,0.3-0.1,0.5-0.1,0.8c0,1.3,0.7,2.1,1.8,2.1c0.3,0,0.5,0,0.9-0.1l0.2-1.1c-0.3,0.2-0.6,0.2-0.9,0.2
				c-0.6,0-1-0.4-1-1.2C24,12.1,24.5,11.4,25.3,11.4z"/>
			<path fill="#003473" d="M34.1,10.4l-0.2,1.4c-0.3-0.4-0.6-0.6-1-0.6c-0.5,0-1,0.4-1.3,1c-0.4-0.1-0.9-0.2-0.9-0.2v0
				c0-0.3,0-0.5,0-0.6h-1c-0.1,1.2-0.4,2.4-0.5,3.7l0,0.3h1c0.1-0.9,0.2-1.7,0.3-2.3c0.4-0.3,0.5-0.6,0.9-0.6
				c-0.2,0.4-0.3,0.8-0.3,1.3c0,1,0.5,1.6,1.2,1.6c0.4,0,0.7-0.1,1-0.4l0,0.4h1l0.8-4.8H34.1z M32.8,14.4c-0.4,0-0.5-0.3-0.5-0.8
				c0-0.8,0.3-1.3,0.8-1.3c0.4,0,0.5,0.3,0.5,0.8C33.6,13.8,33.3,14.4,32.8,14.4z"/>
		</g>
		<g>
			<polygon fill="#FFFFFF" points="9.5,15 8.5,15 9.1,11.3 7.8,15 7.1,15 7,11.3 6.4,15 5.4,15 6.2,10.1 7.7,10.1 7.7,13.1 
				8.7,10.1 10.3,10.1 			"/>
			<path fill="#FFFFFF" d="M12.1,13.2c-0.1,0-0.2,0-0.2,0c-0.6,0-0.9,0.2-0.9,0.6c0,0.2,0.1,0.4,0.4,0.4
				C11.8,14.2,12.1,13.8,12.1,13.2z M12.8,15c-0.1,0-0.9,0-0.9,0l0-0.4c-0.3,0.3-0.6,0.5-1.1,0.5C10.3,15,10,14.6,10,14
				c0-1,0.7-1.5,1.8-1.5c0.1,0,0.3,0,0.4,0c0-0.1,0-0.2,0-0.3c0-0.3-0.2-0.4-0.7-0.4c-0.5,0-0.9,0.1-1.1,0.2c0-0.1,0.1-0.9,0.1-0.9
				c0.5-0.2,0.9-0.2,1.2-0.2c0.9,0,1.4,0.4,1.4,1.2c0,0.2,0,0.5-0.1,0.8C13,13.5,12.9,14.7,12.8,15z"/>
			<path fill="#FFFFFF" d="M26.7,10.3l-0.2,1c-0.4-0.2-0.6-0.3-0.9-0.3c-0.8,0-1.3,0.7-1.3,1.8c0,0.7,0.4,1.2,1,1.2
				c0.3,0,0.5-0.1,0.9-0.2L26,14.9C25.6,15,25.3,15,25,15c-1.1,0-1.8-0.8-1.8-2.1c0-1.7,1-2.9,2.3-2.9C26,10,26.5,10.2,26.7,10.3z"
				/>
			<path fill="#FFFFFF" d="M28.4,13.2c-0.1,0-0.2,0-0.2,0c-0.6,0-0.9,0.2-0.9,0.6c0,0.2,0.1,0.4,0.4,0.4
				C28,14.2,28.3,13.8,28.4,13.2z M29.1,15c-0.1,0-0.9,0-0.9,0l0-0.4C28,14.9,27.7,15,27.2,15c-0.6,0-0.9-0.4-0.9-1.1
				c0-1,0.7-1.5,1.8-1.5c0.1,0,0.3,0,0.4,0c0-0.1,0-0.2,0-0.3c0-0.3-0.2-0.4-0.7-0.4c-0.5,0-0.9,0.1-1.1,0.2c0-0.1,0.1-0.9,0.1-0.9
				c0.5-0.2,0.9-0.2,1.2-0.2c0.9,0,1.4,0.4,1.4,1.2c0,0.2,0,0.5-0.1,0.8C29.3,13.5,29.1,14.7,29.1,15z"/>
			<path fill="#FFFFFF" d="M17.4,14.9C17.1,15,16.9,15,16.7,15c-0.5,0-0.8-0.3-0.8-0.9c0-0.2,0.1-0.6,0.1-1c0.1-0.4,0.4-2.7,0.4-2.7
				h1l-0.1,0.6h0.5L17.7,12h-0.5c-0.1,0.7-0.3,1.7-0.3,1.8c0,0.2,0.1,0.3,0.4,0.3c0.1,0,0.2,0,0.3,0L17.4,14.9z"/>
			<path fill="#FFFFFF" d="M20.6,14.9C20.2,15,19.9,15,19.5,15c-1.2,0-1.8-0.6-1.8-1.8c0-1.3,0.8-2.3,1.8-2.3c0.8,0,1.4,0.6,1.4,1.4
				c0,0.3,0,0.6-0.1,1h-2c-0.1,0.6,0.3,0.8,0.9,0.8c0.4,0,0.7-0.1,1.1-0.2L20.6,14.9z M20,12.6c0-0.1,0.1-0.7-0.5-0.7
				c-0.3,0-0.6,0.3-0.7,0.7H20z"/>
			<path fill="#FFFFFF" d="M13.4,12.3c0,0.5,0.2,0.8,0.8,1.1c0.4,0.2,0.5,0.3,0.5,0.4c0,0.2-0.2,0.4-0.6,0.4c-0.3,0-0.6,0-0.9-0.2
				c0,0-0.1,0.9-0.1,0.9c0.2,0.1,0.4,0.1,1.1,0.1c1.1,0,1.6-0.4,1.6-1.3c0-0.5-0.2-0.9-0.7-1.1c-0.4-0.2-0.5-0.2-0.5-0.4
				c0-0.2,0.2-0.3,0.5-0.3c0.2,0,0.5,0,0.7,0.1l0.1-0.9C15.6,11,15.2,11,15,11C13.8,11,13.4,11.6,13.4,12.3z"/>
			<path fill="#FFFFFF" d="M34.6,15h-1l0-0.4c-0.3,0.3-0.6,0.4-1,0.4c-0.8,0-1.2-0.6-1.2-1.6c0-1.3,0.8-2.4,1.7-2.4
				c0.4,0,0.7,0.2,1,0.5l0.2-1.4h1L34.6,15z M33.1,14.1c0.5,0,0.8-0.5,0.8-1.3c0-0.5-0.2-0.8-0.5-0.8c-0.5,0-0.8,0.5-0.8,1.3
				C32.5,13.8,32.7,14.1,33.1,14.1z"/>
			<path fill="#FFFFFF" d="M30.1,11.1c-0.1,1.2-0.4,2.4-0.5,3.7l0,0.3h1c0.4-2.4,0.5-2.9,1-2.8c0.1-0.5,0.3-0.9,0.4-1.1
				c-0.4-0.1-0.7,0.2-1,0.6c0-0.2,0.1-0.4,0.1-0.6H30.1z"/>
			<path fill="#FFFFFF" d="M21.5,11.1c-0.1,1.2-0.4,2.4-0.5,3.7l0,0.3h1c0.4-2.4,0.5-2.9,1-2.8c0.1-0.5,0.3-0.9,0.4-1.1
				c-0.4-0.1-0.7,0.2-1,0.6c0-0.2,0.1-0.4,0.1-0.6H21.5z"/>
			<g>
				<path fill="#FFFFFF" d="M35,14.7c0-0.2,0.1-0.3,0.3-0.3c0.2,0,0.3,0.1,0.3,0.3c0,0.2-0.1,0.3-0.3,0.3C35.2,15,35,14.8,35,14.7z
					 M35.4,14.9c0.1,0,0.2-0.1,0.2-0.2c0-0.1-0.1-0.2-0.2-0.2c-0.1,0-0.2,0.1-0.2,0.2C35.1,14.8,35.2,14.9,35.4,14.9z M35.3,14.8
					L35.3,14.8l-0.1-0.3h0.1c0,0,0,0,0.1,0c0,0,0,0,0,0.1c0,0,0,0.1,0,0.1l0.1,0.1H35.3l0-0.1h0V14.8z M35.3,14.7L35.3,14.7
					C35.4,14.7,35.4,14.7,35.3,14.7C35.4,14.6,35.4,14.6,35.3,14.7C35.4,14.6,35.4,14.6,35.3,14.7C35.4,14.6,35.4,14.6,35.3,14.7
					L35.3,14.7L35.3,14.7z"/>
			</g>
		</g>
	</g>
</g>
<path fill="#FFFFFF" d="M43.4,16.8L43.4,16.8C43.4,16.7,43.4,16.7,43.4,16.8z"/>
<g>
	<rect x="41.9" y="1.7" fill="#0058A0" stroke="#0058A0" stroke-width="0.5144" width="34.4" height="21.5"/>
	<path fill="#FFFFFF" d="M43.5,16.8c0,0.2,0.1,1.5,1.7,1.5c9.7,0,21.4,0,31.1,0l0-16.6H43.5C43.5,5.3,43.5,13.9,43.5,16.8L43.5,16.8
		z"/>
	<g>
		<path fill="#0058A0" d="M52.8,5.2l-2.4,6.5l-0.3-1.3c-0.6-1.6-1.7-3-3.4-4l2.2,8.3h2.6l3.8-9.5H52.8"/>
		<polyline fill="#0058A0" points="54.9,14.6 56.4,5.2 58.9,5.2 57.3,14.6 54.9,14.6 		"/>
		<path fill="#0058A0" d="M66.2,5.4C65.7,5.2,65,5,64,5c-2.4,0-4.1,1.3-4.1,3.1c0,1.4,1.2,2.1,2.1,2.6c1,0.5,1.3,0.8,1.3,1.2
			c0,0.6-0.8,0.9-1.5,0.9c-1,0-1.5-0.1-2.3-0.5l-0.3-0.1l-0.3,2.1c0.6,0.3,1.6,0.5,2.7,0.5c2.6,0,4.2-1.3,4.3-3.2
			c0-1.1-0.6-1.9-2.1-2.6c-0.9-0.4-1.4-0.7-1.4-1.2c0-0.4,0.4-0.8,1.4-0.8c0.8,0,1.4,0.2,1.8,0.4l0.2,0.1L66.2,5.4"/>
		<path fill="#0058A0" d="M72.5,5.2h-1.9c-0.6,0-1,0.2-1.3,0.8l-3.6,8.7h2.6c0,0,0.4-1.2,0.5-1.4c0.3,0,2.8,0,3.1,0
			c0.1,0.3,0.3,1.4,0.3,1.4h2.3L72.5,5.2 M69.5,11.3c0.2-0.5,1-2.6,1-2.6c0,0,0.2-0.5,0.3-0.9l0.2,0.8c0,0,0.5,2.3,0.6,2.7
			C71.1,11.3,69.9,11.3,69.5,11.3z"/>
		<path fill="#FAA61A" d="M48.2,5.2h-3.9l0,0.2c3.1,0.8,5.1,2.7,5.9,5L49.3,6C49.2,5.4,48.8,5.2,48.2,5.2z"/>
	</g>
</g>
<path fill="#4797C9" d="M102.6,1.3H80.4v22.3h22.2v-7.4c0.1-0.1,0.1-0.3,0.1-0.5c0-0.2,0-0.4-0.1-0.5"/>
<path fill="#FFFFFF" d="M82.4,11l-0.4-1l-0.4,1 M91.8,10.6c-0.1,0.1-0.2,0.1-0.3,0.1h-0.8V10h0.8c0.1,0,0.2,0,0.3,0
	c0.1,0,0.1,0.1,0.1,0.2C91.9,10.4,91.9,10.5,91.8,10.6z M97.2,11l-0.4-1l-0.4,1H97.2z M87.1,12.1h-0.6l0-2l-0.9,2H85l-0.9-2v2h-1.3
	l-0.2-0.6h-1.3L81,12.1h-0.7l1.1-2.6h0.9l1.1,2.5V9.5h1l0.8,1.8l0.8-1.8h1V12.1L87.1,12.1z M89.7,12.1h-2.1V9.5h2.1V10h-1.5v0.5h1.4
	V11h-1.4v0.5h1.5V12.1z M92.6,10.2c0,0.4-0.3,0.6-0.4,0.7c0.1,0.1,0.3,0.1,0.3,0.2c0.1,0.1,0.1,0.2,0.1,0.5v0.5h-0.6l0-0.3
	c0-0.2,0-0.4-0.1-0.5c-0.1-0.1-0.2-0.1-0.5-0.1h-0.7v1h-0.6V9.5h1.4c0.3,0,0.6,0,0.8,0.1C92.5,9.7,92.6,9.9,92.6,10.2z M93.6,12.1
	H93V9.5h0.6V12.1z M101,12.1h-0.9l-1.2-2v2h-1.3l-0.2-0.6h-1.3l-0.2,0.6h-0.7c-0.3,0-0.7-0.1-0.9-0.3c-0.2-0.2-0.3-0.5-0.3-1
	c0-0.4,0.1-0.7,0.3-1c0.2-0.2,0.5-0.3,0.9-0.3h0.6V10h-0.6c-0.2,0-0.4,0-0.5,0.2c-0.1,0.1-0.2,0.3-0.2,0.6c0,0.3,0.1,0.5,0.2,0.6
	c0.1,0.1,0.3,0.1,0.4,0.1h0.3l0.9-2.1h0.9l1.1,2.5V9.5h1l1.1,1.8V9.5h0.6V12.1L101,12.1z M80.4,12.6h1.1l0.2-0.6h0.5l0.2,0.6h2.1
	v-0.4l0.2,0.4h1.1l0.2-0.5v0.5h5.2l0-1h0.1c0.1,0,0.1,0,0.1,0.1v0.8h2.7v-0.2c0.2,0.1,0.6,0.2,1,0.2h1.1l0.2-0.6H97l0.2,0.6h2.2
	v-0.6l0.3,0.6h1.8V9h-1.7v0.4L99.6,9h-1.8v0.4L97.6,9h-2.4c-0.4,0-0.8,0.1-1,0.2V9h-1.7v0.2C92.3,9,92,9,91.8,9h-6.1l-0.4,0.9
	L84.9,9h-1.9v0.4L82.7,9h-1.6l-0.8,1.7V12.6L80.4,12.6z"/>
<path fill="#FFFFFF" d="M102.6,14.5h-1.1c-0.1,0-0.2,0-0.3,0c-0.1,0-0.1,0.1-0.1,0.2c0,0.1,0.1,0.2,0.1,0.2c0.1,0,0.1,0,0.2,0l0.3,0
	c0.3,0,0.6,0.1,0.7,0.2c0,0,0,0,0.1,0.1 M102.6,16.3c-0.2,0.2-0.4,0.3-0.8,0.3h-1.2V16h1.2c0.1,0,0.2,0,0.3-0.1c0,0,0.1-0.1,0.1-0.2
	c0-0.1,0-0.1-0.1-0.2c0,0-0.1-0.1-0.2-0.1c-0.6,0-1.3,0-1.3-0.8c0-0.4,0.2-0.8,0.9-0.8h1.2v-0.5h-1.2c-0.3,0-0.6,0.1-0.8,0.2v-0.2
	h-1.7c-0.3,0-0.6,0.1-0.7,0.2v-0.2h-3.1v0.2c-0.2-0.2-0.7-0.2-0.8-0.2h-2v0.2c-0.2-0.2-0.6-0.2-0.9-0.2h-2.3L88.6,14l-0.5-0.6h-3.4
	v3.6h3.3l0.5-0.6l0.5,0.6l2,0v-0.9h0.2c0.3,0,0.6,0,0.9-0.1v1h1.7v-1H94c0.1,0,0.1,0,0.1,0.1v0.8h5.1c0.3,0,0.7-0.1,0.9-0.2v0.2h1.6
	c0.3,0,0.7,0,0.9-0.2V16.3L102.6,16.3z M100.1,15.2c0.1,0.1,0.2,0.3,0.2,0.6c0,0.6-0.4,0.8-1,0.8h-1.2V16h1.2c0.1,0,0.2,0,0.3-0.1
	c0,0,0.1-0.1,0.1-0.2c0-0.1,0-0.1-0.1-0.2c0,0-0.1-0.1-0.2-0.1c-0.6,0-1.3,0-1.3-0.8c0-0.4,0.2-0.8,0.9-0.8h1.3v0.6H99
	c-0.1,0-0.2,0-0.3,0c-0.1,0-0.1,0.1-0.1,0.2c0,0.1,0.1,0.2,0.1,0.2c0.1,0,0.1,0,0.2,0l0.3,0C99.7,15,100,15.1,100.1,15.2z
	 M94.5,15.1c-0.1,0-0.2,0.1-0.3,0.1h-0.8v-0.6h0.8c0.1,0,0.2,0,0.3,0c0.1,0,0.1,0.1,0.1,0.2S94.5,15,94.5,15.1z M94.8,15.4
	c0.1,0.1,0.3,0.1,0.3,0.2c0.1,0.1,0.1,0.2,0.1,0.5v0.5h-0.6v-0.3c0-0.2,0-0.4-0.1-0.5c-0.1-0.1-0.2-0.1-0.5-0.1h-0.7v1h-0.6V14h1.4
	c0.3,0,0.5,0,0.8,0.1c0.2,0.1,0.3,0.3,0.3,0.6C95.3,15.1,95,15.3,94.8,15.4z M95.6,14h2.1v0.5h-1.5V15h1.4v0.5h-1.4v0.5l1.5,0v0.5
	h-2.1V14z M91.4,15.2h-0.8v-0.7h0.8c0.2,0,0.4,0.1,0.4,0.3C91.8,15.1,91.6,15.2,91.4,15.2z M90,16.4l-1-1.1l1-1V16.4z M87.5,16.1H86
	v-0.5h1.4V15H86v-0.5h1.6l0.7,0.8L87.5,16.1z M92.5,14.8c0,0.7-0.5,0.9-1.1,0.9h-0.8v0.9h-1.2l-0.8-0.9l-0.8,0.9h-2.5V14h2.5
	l0.8,0.9l0.8-0.9h2C91.9,14,92.5,14.1,92.5,14.8z"/>
<path fill="#F58220" d="M140.7,13.7c0,0-9.3,6.6-26.4,9.5h26.4V13.7z"/>
<path fill="#231F20" d="M140.9,1.5l-34.2,0l0,22l34.3,0v-22H140.9z M140.7,1.7c0,0.2,0,21.2,0,21.5c-0.2,0-33.6,0-33.8,0
	c0-0.2,0-21.2,0-21.5C107.1,1.7,140.5,1.7,140.7,1.7z"/>
<path fill="#E83530" d="M137.5,20.5"/>
<path fill="#F58220" d="M124.6,7.1c-1.4,0-2.5,1.1-2.5,2.4c0,1.4,1.1,2.5,2.5,2.5c1.4,0,2.5-1.1,2.5-2.5
	C127.2,8.2,126,7.1,124.6,7.1z"/>
<path fill="#001722" d="M110.2,7.2h-1.4v4.8h1.4c0.7,0,1.2-0.2,1.7-0.5c0.5-0.4,0.9-1.1,0.9-1.8C112.8,8.1,111.7,7.2,110.2,7.2z
	 M111.3,10.7c-0.3,0.3-0.7,0.4-1.3,0.4h-0.2V8h0.2c0.6,0,1,0.1,1.3,0.4c0.3,0.3,0.5,0.7,0.5,1.2C111.8,10,111.6,10.4,111.3,10.7z"/>
<rect x="113.2" y="7.2" fill="#001722" width="0.9" height="4.8"/>
<path fill="#001722" d="M116.4,9c-0.6-0.2-0.7-0.3-0.7-0.6c0-0.3,0.3-0.5,0.7-0.5c0.3,0,0.5,0.1,0.7,0.4l0.5-0.6
	c-0.4-0.3-0.9-0.5-1.4-0.5c-0.8,0-1.5,0.6-1.5,1.4c0,0.7,0.3,1,1.2,1.3c0.4,0.1,0.5,0.2,0.6,0.3c0.2,0.1,0.3,0.3,0.3,0.5
	c0,0.4-0.3,0.7-0.7,0.7c-0.4,0-0.8-0.2-1-0.6l-0.6,0.6c0.4,0.6,0.9,0.9,1.6,0.9c1,0,1.6-0.6,1.6-1.6C117.8,9.7,117.5,9.4,116.4,9z"
	/>
<path fill="#001722" d="M118.1,9.5c0,1.4,1.1,2.5,2.5,2.5c0.4,0,0.7-0.1,1.2-0.3v-1.1c-0.4,0.4-0.7,0.5-1.1,0.5
	c-0.9,0-1.6-0.7-1.6-1.6c0-0.9,0.7-1.6,1.6-1.6c0.4,0,0.8,0.2,1.2,0.5V7.3C121.3,7.1,121,7,120.6,7C119.2,7,118.1,8.2,118.1,9.5z"/>
<polygon fill="#001722" points="129.2,10.3 128,7.2 127,7.2 129,12 129.5,12 131.5,7.2 130.5,7.2 "/>
<polygon fill="#001722" points="132,11.9 134.6,11.9 134.6,11.1 132.9,11.1 132.9,9.8 134.5,9.8 134.5,9 132.9,9 132.9,8 134.6,8 
	134.6,7.2 132,7.2 "/>
<path fill="#001722" d="M138.3,8.6c0-0.9-0.6-1.4-1.7-1.4h-1.4v4.8h0.9V10h0.1l1.3,1.9h1.1l-1.5-2C137.9,9.8,138.3,9.3,138.3,8.6z
	 M136.4,9.3h-0.3V7.9h0.3c0.6,0,0.9,0.2,0.9,0.7C137.3,9.1,137,9.3,136.4,9.3z"/>
<path fill="#231F20" d="M138.9,7.5c0-0.1-0.1-0.1-0.2-0.1h-0.1v0.4h0.1V7.6l0.1,0.2h0.1l-0.1-0.2C138.9,7.6,138.9,7.6,138.9,7.5z
	 M138.7,7.6L138.7,7.6l0-0.1h0C138.8,7.5,138.8,7.5,138.7,7.6C138.8,7.5,138.8,7.6,138.7,7.6z"/>
<path fill="#231F20" d="M138.8,7.2c-0.2,0-0.4,0.2-0.4,0.4c0,0.2,0.2,0.4,0.4,0.4c0.2,0,0.4-0.2,0.4-0.4
	C139.1,7.4,139,7.2,138.8,7.2z M138.8,7.9c-0.2,0-0.3-0.1-0.3-0.3c0-0.2,0.1-0.3,0.3-0.3c0.2,0,0.3,0.1,0.3,0.3S138.9,7.9,138.8,7.9
	z"/>
<path fill="#231F20" d="M117.2,13.2l1.2,1.3v-1.2h0.2v1.7l-1.2-1.3v1.2h-0.2V13.2z"/>
<path fill="#231F20" d="M117.2,13.2v1.7h0.2c0,0,0-1.1,0-1.2c0.1,0.1,1.2,1.3,1.2,1.3v-1.7h-0.2c0,0,0,1.1,0,1.2
	C118.3,14.4,117.2,13.1,117.2,13.2L117.2,13.2z M117.2,13.2c0.1,0.1,1.2,1.3,1.2,1.3s0-1.2,0-1.3c0,0,0.1,0,0.1,0c0,0,0,1.5,0,1.6
	c-0.1-0.1-1.2-1.3-1.2-1.3s0,1.2,0,1.3c0,0-0.1,0-0.1,0C117.2,14.8,117.2,13.3,117.2,13.2z"/>
<path fill="#231F20" d="M119.5,13.2h0.8v0.2h-0.6v0.5h0.6V14h-0.6v0.6h0.6v0.2h-0.8V13.2z"/>
<path fill="#231F20" d="M120.3,13.2h-0.8v1.6h0.9v-0.2c0,0-0.6,0-0.6,0c0,0,0-0.6,0-0.6c0,0,0.6,0,0.6,0v-0.2c0,0-0.6,0-0.6,0
	c0,0,0-0.4,0-0.4c0,0,0.6,0,0.6,0L120.3,13.2L120.3,13.2z M120.3,13.2c0,0,0,0.1,0,0.1c0,0-0.6,0-0.6,0v0.5c0,0,0.6,0,0.6,0
	c0,0,0,0.1,0,0.1c0,0-0.6,0-0.6,0v0.7c0,0,0.6,0,0.6,0c0,0,0,0.1,0,0.1c0,0-0.8,0-0.8,0c0,0,0-1.5,0-1.6
	C119.5,13.2,120.2,13.2,120.3,13.2z"/>
<path fill="#231F20" d="M121.5,14.8h-0.2v-1.4H121v-0.2h0.9v0.2h-0.4V14.8z"/>
<path fill="#231F20" d="M121.9,13.2h-1v0.2c0,0,0.4,0,0.4,0c0,0,0,1.4,0,1.4h0.2c0,0,0-1.4,0-1.4c0,0,0.4,0,0.4,0L121.9,13.2
	L121.9,13.2z M121.9,13.2c0,0,0,0.1,0,0.1c0,0-0.4,0-0.4,0s0,1.4,0,1.4c0,0-0.1,0-0.1,0c0,0,0-1.4,0-1.4s-0.4,0-0.4,0
	c0,0,0-0.1,0-0.1C121,13.2,121.9,13.2,121.9,13.2z"/>
<path fill="#231F20" d="M123.1,14.4l0.5-1.3l0.5,1.3l0.4-1.2h0.2l-0.6,1.7l-0.5-1.3l-0.5,1.3l-0.6-1.7h0.2L123.1,14.4z"/>
<path fill="#231F20" d="M123.6,13.1c0,0-0.5,1.2-0.5,1.2c0-0.1-0.4-1.2-0.4-1.2h-0.2l0.6,1.7c0,0,0.5-1.2,0.5-1.3
	c0,0.1,0.5,1.3,0.5,1.3l0.6-1.7h-0.2c0,0-0.4,1.1-0.4,1.2C124.1,14.3,123.6,13.1,123.6,13.1L123.6,13.1z M123.1,14.4
	c0,0,0.5-1.2,0.5-1.2c0,0.1,0.5,1.3,0.5,1.3s0.4-1.2,0.4-1.2c0,0,0.1,0,0.2,0c0,0-0.6,1.5-0.6,1.6c0-0.1-0.5-1.3-0.5-1.3
	s-0.5,1.2-0.5,1.3c0-0.1-0.6-1.6-0.6-1.6c0,0,0.1,0,0.2,0C122.7,13.3,123.1,14.5,123.1,14.4L123.1,14.4z"/>
<path fill="#231F20" d="M127,14c0,0.5-0.4,0.8-0.8,0.8c-0.5,0-0.8-0.4-0.8-0.8c0-0.5,0.4-0.8,0.8-0.8C126.7,13.2,127,13.6,127,14z
	 M125.6,14c0,0.4,0.3,0.7,0.7,0.7c0.4,0,0.7-0.3,0.7-0.7c0-0.4-0.3-0.7-0.7-0.7C125.8,13.4,125.6,13.7,125.6,14z"/>
<path fill="#231F20" d="M125.4,14c0,0.5,0.4,0.8,0.8,0.8c0.5,0,0.8-0.4,0.8-0.8c0-0.5-0.4-0.8-0.8-0.8
	C125.7,13.2,125.4,13.6,125.4,14z M125.4,14c0-0.4,0.4-0.8,0.8-0.8c0.4,0,0.8,0.4,0.8,0.8c0,0.4-0.4,0.8-0.8,0.8
	C125.8,14.8,125.4,14.5,125.4,14z"/>
<path fill="#231F20" d="M125.5,14c0,0.4,0.3,0.7,0.7,0.7c0.4,0,0.7-0.3,0.7-0.7c0-0.4-0.3-0.7-0.7-0.7
	C125.8,13.3,125.5,13.6,125.5,14z M125.6,14c0-0.4,0.3-0.6,0.6-0.6c0.4,0,0.6,0.3,0.6,0.6c0,0.4-0.3,0.6-0.6,0.6
	C125.9,14.7,125.6,14.4,125.6,14z"/>
<path fill="#231F20" d="M128,14.8h-0.2v-1.6h0.2c0.3,0,0.6,0.1,0.6,0.4c0,0.2-0.2,0.4-0.4,0.4l0.5,0.7h-0.2l-0.5-0.7h0V14.8z
	 M128,14L128,14c0.3,0,0.5,0,0.5-0.3c0-0.3-0.2-0.3-0.4-0.3H128V14z"/>
<path fill="#231F20" d="M127.8,13.2L127.8,13.2l0,1.6h0.2c0,0,0-0.7,0-0.7c0,0,0,0,0,0l0,0c0,0,0.5,0.7,0.5,0.7l0.2,0h0
	c0,0-0.5-0.7-0.5-0.7c0.2,0,0.4-0.2,0.4-0.4c0-0.3-0.2-0.5-0.6-0.5H127.8z M128,13.2c0.4,0,0.6,0.1,0.6,0.4c0,0.2-0.1,0.4-0.4,0.4
	l0,0c0,0,0.5,0.7,0.5,0.7c0,0-0.2,0-0.2,0h0c0,0-0.5-0.7-0.5-0.7l-0.1,0h0c0,0,0,0.7,0,0.7c0,0-0.1,0-0.1,0c0,0,0-1.5,0-1.6
	C127.8,13.2,128,13.2,128,13.2z"/>
<path fill="#231F20" d="M128,13.4L128,13.4l0,0.6h0.1c0.2,0,0.4,0,0.4-0.3C128.5,13.4,128.2,13.4,128,13.4L128,13.4z M128,13.4
	c0.2,0,0.4,0,0.4,0.3c0,0.2-0.2,0.3-0.4,0.3c0,0,0,0,0,0C128,13.9,128,13.4,128,13.4C128,13.4,128,13.4,128,13.4z"/>
<path fill="#231F20" d="M130.3,13.2h0.2l-0.7,0.7l0.8,0.8h-0.2l-0.7-0.7l0,0v0.7h-0.2v-1.6h0.2v0.7L130.3,13.2z"/>
<path fill="#231F20" d="M130.6,13.2h-0.2c0,0-0.6,0.6-0.7,0.7c0-0.1,0-0.7,0-0.7h-0.2v1.6h0.2c0,0,0-0.7,0-0.7c0,0,0,0,0,0
	c0,0,0.6,0.7,0.6,0.7l0.3,0h0c0,0-0.8-0.8-0.8-0.9C129.9,13.9,130.6,13.2,130.6,13.2L130.6,13.2z M130.5,13.2
	c-0.1,0.1-0.7,0.7-0.7,0.7s0.7,0.8,0.8,0.8c-0.1,0-0.2,0-0.2,0l0,0c0,0-0.6-0.7-0.6-0.7l0,0l-0.1,0.1c0,0,0,0.6,0,0.7
	c0,0-0.1,0-0.1,0c0,0,0-1.5,0-1.6c0,0,0.1,0,0.1,0c0,0,0,0.7,0,0.7s0.7-0.7,0.7-0.7C130.3,13.2,130.5,13.2,130.5,13.2z"/>
</svg>
