<?xml version="1.0" encoding="utf-8"?>
<!-- Generator: Adobe Illustrator 19.0.1, SVG Export Plug-In . SVG Version: 6.00 Build 0)  -->
<svg version="1.2" baseProfile="tiny" id="Layer_1" xmlns="http://www.w3.org/2000/svg" xmlns:xlink="http://www.w3.org/1999/xlink"
	 x="0px" y="0px" viewBox="0 0 251 50" xml:space="preserve">
<g>
	<path d="M16,14.2c0.2-0.1,0.3-0.2,0.5-0.3c0.2-0.1,0.3-0.2,0.5-0.2c0.4,0,0.6,0,0.6,0h0.6c0.2,0,0.4,0,0.5,0.1
		c0.1,0,0.3,0.1,0.4,0.2l12.3,9.6h-4.5l-2.8-2.2h-8.6v-2h6l-3.6-2.7c-0.1,0-0.2,0-0.2,0.1c-0.1,0-0.1,0.1-0.3,0.2L9,23.6H4.5
		L16,14.2z"/>
	<path d="M45.2,14.2c0.5,0.3,1.1,0.8,1.8,1.3c0.7,0.5,1.4,1.1,2.2,1.7c0.8,0.6,1.5,1.1,2.2,1.7s1.3,0.9,1.8,1.3s0.8,0.5,0.9,0.5
		c0.1,0,0.4-0.2,0.9-0.5c0.5-0.4,1.1-0.8,1.8-1.3s1.4-1.1,2.2-1.7c0.8-0.6,1.5-1.1,2.2-1.7c0.7-0.5,1.3-0.9,1.8-1.3s0.9-0.5,1-0.5
		h3.6c0.4,0,0.7,0.1,1,0.3c0.3,0.2,0.4,0.6,0.4,1.2v8.4h-3.9v-7.4c0-0.1-0.1-0.2-0.2-0.3h-0.1l-9.6,7.4c-0.1,0.1-0.3,0.2-0.4,0.2
		c-0.1,0-0.3,0.1-0.5,0.1c0,0-0.1,0-0.1,0c0,0,0,0,0,0h-0.5v0h0c-0.2,0-0.4,0-0.5-0.1s-0.3-0.1-0.4-0.2l-9.6-7.4h-0.1
		C43,15.9,43,16,43,16.1v7.4h-3.9v-8.4c0-0.6,0.1-1,0.4-1.2c0.3-0.2,0.6-0.3,1-0.3h3.6C44.3,13.7,44.7,13.8,45.2,14.2z"/>
	<path d="M81.6,20.9c0.2,0.1,0.3,0.2,0.6,0.3c0.2,0.1,0.4,0.2,0.6,0.2s0.4,0.1,0.5,0.1h17.5v2H81.7c-0.4,0-0.8,0-1.3-0.1
		S79.4,23.2,79,23c-0.4-0.2-0.8-0.4-1.1-0.7s-0.4-0.6-0.4-1V16c0-0.4,0.1-0.7,0.4-1s0.7-0.5,1.1-0.7c0.4-0.2,0.9-0.3,1.4-0.4
		s0.9-0.1,1.3-0.1h19.1v2H83.3c-0.1,0-0.3,0-0.5,0.1s-0.4,0.1-0.6,0.2s-0.4,0.2-0.6,0.3c-0.2,0.1-0.2,0.3-0.2,0.4v3.7
		C81.4,20.6,81.5,20.8,81.6,20.9z M100.8,19.5H82.6v-2h18.2V19.5z"/>
	<path d="M128.5,16.8c0-0.2-0.1-0.3-0.2-0.4c-0.2-0.1-0.3-0.2-0.5-0.3c-0.2-0.1-0.4-0.2-0.6-0.2c-0.2-0.1-0.4-0.1-0.5-0.1h-13.4
		c-0.1,0-0.2,0.1-0.2,0.3v7.5h-3.9v-8.4c0-0.6,0.1-1,0.4-1.2c0.3-0.2,0.6-0.3,1-0.3h17.6c0.4,0,0.8,0,1.3,0.1c0.5,0.1,1,0.2,1.4,0.4
		c0.4,0.2,0.8,0.4,1.1,0.7c0.3,0.3,0.4,0.6,0.4,1v2c0,0.4-0.1,0.7-0.4,1c-0.3,0.3-0.7,0.5-1.1,0.7c-0.4,0.2-0.9,0.3-1.4,0.4
		c-0.5,0.1-0.9,0.1-1.3,0.1h-6.3l11.2,3.2h-7l-11.9-3.2v-2.1h12.4c0.1,0,0.2,0,0.5-0.1c0.2,0,0.4-0.1,0.7-0.2
		c0.2-0.1,0.4-0.2,0.6-0.3c0.2-0.1,0.2-0.3,0.2-0.4V16.8z"/>
	<path d="M144.7,13.7v9.9h-3.9v-9.9H144.7z"/>
	<path d="M157,16.8v3.7c0,0.2,0.1,0.3,0.2,0.4c0.2,0.1,0.3,0.2,0.6,0.3c0.2,0.1,0.4,0.2,0.6,0.2s0.4,0.1,0.5,0.1h17.5v2h-19.1
		c-0.4,0-0.8,0-1.3-0.1s-0.9-0.2-1.4-0.4c-0.4-0.2-0.8-0.4-1.1-0.7s-0.4-0.6-0.4-1V16c0-0.4,0.1-0.7,0.4-1s0.7-0.5,1.1-0.7
		c0.4-0.2,0.9-0.3,1.4-0.4s0.9-0.1,1.3-0.1h19.1v2h-17.5c-0.1,0-0.3,0-0.5,0.1s-0.4,0.1-0.6,0.2s-0.4,0.2-0.6,0.3
		C157.1,16.4,157,16.6,157,16.8z"/>
	<path d="M195.6,14.2c0.2-0.1,0.3-0.2,0.5-0.3c0.2-0.1,0.3-0.2,0.5-0.2c0.4,0,0.6,0,0.6,0h0.6c0.2,0,0.4,0,0.5,0.1
		c0.1,0,0.3,0.1,0.4,0.2l12.3,9.6h-4.5l-2.8-2.2h-8.6v-2h6l-3.6-2.7c-0.1,0-0.2,0-0.2,0.1c-0.1,0-0.1,0.1-0.3,0.2l-8.5,6.7h-4.5
		L195.6,14.2z"/>
	<path d="M222.8,15.8c-0.1,0-0.2,0.1-0.2,0.3v7.5h-3.9v-8.4c0-0.6,0.1-1,0.4-1.2c0.3-0.2,0.6-0.3,1-0.3h3.6c0.2,0,0.3,0,0.6,0.1
		c0.2,0.1,0.4,0.1,0.6,0.2s0.4,0.2,0.6,0.2c0.2,0.1,0.3,0.1,0.4,0.2l13,7h0.1c0.1,0,0.2-0.1,0.2-0.3v-7.5h3.9v8.4
		c0,0.6-0.1,1-0.4,1.2c-0.3,0.2-0.6,0.3-1,0.3H238c-0.1,0-0.2,0-0.5-0.1c-0.2-0.1-0.4-0.1-0.7-0.2c-0.2-0.1-0.4-0.2-0.6-0.2
		c-0.2-0.1-0.3-0.1-0.4-0.2L222.8,15.8L222.8,15.8z"/>
	<path d="M12.4,25.9c0.7,0.4,1.4,1,2.3,1.6c0.9,0.6,1.8,1.3,2.8,2.1c1,0.7,1.9,1.4,2.8,2.1c0.9,0.6,1.6,1.2,2.2,1.6
		c0.6,0.4,1,0.7,1.1,0.7c0.1,0,0.5-0.3,1.1-0.7c0.6-0.4,1.4-1,2.2-1.6s1.8-1.3,2.8-2.1c1-0.7,1.9-1.4,2.8-2.1
		c0.9-0.6,1.7-1.2,2.3-1.6c0.7-0.4,1.1-0.6,1.3-0.6h4.6c0.5,0,0.9,0.1,1.3,0.4s0.6,0.8,0.6,1.5v10.6h-5v-9.4c0-0.2-0.1-0.3-0.2-0.3
		h-0.1l-12.2,9.4c-0.2,0.1-0.3,0.2-0.5,0.2c-0.1,0-0.3,0.1-0.6,0.1c0,0-0.1,0-0.1,0c0,0,0,0-0.1,0h-0.7v0h-0.1c-0.3,0-0.5,0-0.7-0.1
		c-0.2-0.1-0.3-0.1-0.5-0.3L9.9,28H9.8c-0.2,0.1-0.2,0.2-0.2,0.3v9.4h-5V27.2c0-0.7,0.2-1.2,0.6-1.5c0.4-0.3,0.8-0.4,1.3-0.4h4.6
		C11.3,25.3,11.7,25.5,12.4,25.9z"/>
	<path d="M58.2,25.3v8.6c0,0.2,0.1,0.4,0.3,0.6c0.2,0.2,0.4,0.3,0.7,0.4c0.3,0.1,0.6,0.2,0.8,0.3s0.5,0.1,0.6,0.1h14.8
		c0.1,0,0.3,0,0.6-0.1c0.3-0.1,0.5-0.1,0.8-0.3c0.3-0.1,0.5-0.3,0.7-0.4c0.2-0.2,0.3-0.4,0.3-0.6v-8.6h5v9.6c0,0.5-0.2,0.9-0.6,1.3
		c-0.4,0.4-0.8,0.7-1.4,0.9c-0.6,0.2-1.1,0.4-1.8,0.5c-0.6,0.1-1.2,0.2-1.7,0.2H58.6c-0.5,0-1.1-0.1-1.7-0.2
		c-0.6-0.1-1.2-0.3-1.7-0.5c-0.5-0.2-1-0.5-1.4-0.9c-0.4-0.4-0.6-0.8-0.6-1.3v-9.6H58.2z"/>
	<path d="M117.8,33.8c0-0.2-0.1-0.4-0.3-0.5c-0.2-0.1-0.4-0.2-0.7-0.3c-0.3-0.1-0.5-0.2-0.8-0.2c-0.3,0-0.5-0.1-0.6-0.1H98.7
		c-0.5,0-1.1-0.1-1.7-0.2c-0.6-0.1-1.2-0.3-1.7-0.5c-0.5-0.2-1-0.5-1.4-0.9c-0.4-0.4-0.6-0.8-0.6-1.3v-1.5c0-0.5,0.2-0.9,0.6-1.3
		c0.4-0.4,0.8-0.7,1.4-0.9c0.5-0.2,1.1-0.4,1.7-0.5c0.6-0.1,1.2-0.2,1.7-0.2h24.1v2.6h-22.1c-0.1,0-0.3,0-0.6,0.1
		c-0.3,0-0.5,0.1-0.8,0.2c-0.3,0.1-0.5,0.2-0.7,0.3c-0.2,0.1-0.3,0.3-0.3,0.5c0,0.2,0.1,0.3,0.3,0.5c0.2,0.1,0.4,0.2,0.7,0.3
		c0.3,0.1,0.5,0.2,0.8,0.2c0.3,0,0.4,0.1,0.6,0.1h16.7c0.5,0,1,0.1,1.7,0.2c0.6,0.1,1.2,0.3,1.8,0.6c0.5,0.3,1,0.6,1.4,0.9
		s0.6,0.8,0.6,1.3v1.9c0,0.5-0.2,0.9-0.6,1.3s-0.8,0.7-1.4,0.9c-0.5,0.2-1.1,0.4-1.8,0.5c-0.6,0.1-1.2,0.2-1.7,0.2H93.3v-2.6h22.1
		c0.1,0,0.3,0,0.6-0.1c0.3-0.1,0.5-0.1,0.8-0.3c0.3-0.1,0.5-0.3,0.7-0.4c0.2-0.2,0.3-0.4,0.3-0.6V33.8z"/>
	<path d="M138.3,29.2v4.7c0,0.2,0.1,0.4,0.3,0.6c0.2,0.2,0.4,0.3,0.7,0.4c0.3,0.1,0.5,0.2,0.8,0.3c0.3,0.1,0.5,0.1,0.6,0.1h22.1v2.6
		h-24.2c-0.5,0-1.1-0.1-1.7-0.2c-0.6-0.1-1.2-0.3-1.7-0.5c-0.5-0.2-1-0.5-1.4-0.9c-0.4-0.4-0.6-0.8-0.6-1.3v-6.6
		c0-0.5,0.2-0.9,0.6-1.3c0.4-0.4,0.8-0.7,1.4-0.9c0.5-0.2,1.1-0.4,1.7-0.5c0.6-0.1,1.2-0.2,1.7-0.2h24.2v2.6h-22.1
		c-0.1,0-0.3,0-0.6,0.1c-0.3,0.1-0.5,0.1-0.8,0.3c-0.3,0.1-0.5,0.3-0.7,0.4S138.3,29,138.3,29.2z"/>
	<path d="M178.4,25.3v9.5c0,0.2,0.1,0.4,0.3,0.4H203v2.6h-27.7c-0.5,0-0.9-0.1-1.3-0.4s-0.6-0.8-0.6-1.5V25.3H178.4z"/>
	<path d="M218.8,34.4c0.2,0.2,0.4,0.3,0.7,0.4c0.3,0.1,0.5,0.2,0.8,0.3c0.3,0.1,0.5,0.1,0.6,0.1H243v2.6h-24.2
		c-0.5,0-1.1-0.1-1.7-0.2c-0.6-0.1-1.2-0.3-1.7-0.5c-0.5-0.2-1-0.5-1.4-0.9s-0.6-0.8-0.6-1.3v-6.6c0-0.5,0.2-0.9,0.6-1.3
		s0.8-0.7,1.4-0.9c0.5-0.2,1.1-0.4,1.7-0.5c0.6-0.1,1.2-0.2,1.7-0.2H243v2.6h-22.1c-0.1,0-0.3,0-0.6,0.1c-0.3,0.1-0.5,0.1-0.8,0.3
		c-0.3,0.1-0.5,0.3-0.7,0.4c-0.2,0.2-0.3,0.4-0.3,0.6v4.7C218.5,34.1,218.6,34.3,218.8,34.4z M243,32.6h-23.1v-2.6H243V32.6z"/>
	<rect x="4.6" y="6.3" fill="#BE1E2D" width="238.5" height="4.2"/>
	<rect x="4.6" y="41.3" fill="#BE1E2D" width="238.5" height="4.2"/>
</g>
</svg>
