<?xml version="1.0" encoding="utf-8"?>
<!-- Generator: Adobe Illustrator 18.0.0, SVG Export Plug-In . SVG Version: 6.00 Build 0)  -->
<!DOCTYPE svg [
	<!ENTITY ns_extend "http://ns.adobe.com/Extensibility/1.0/">
	<!ENTITY ns_ai "http://ns.adobe.com/AdobeIllustrator/10.0/">
	<!ENTITY ns_graphs "http://ns.adobe.com/Graphs/1.0/">
	<!ENTITY ns_vars "http://ns.adobe.com/Variables/1.0/">
	<!ENTITY ns_imrep "http://ns.adobe.com/ImageReplacement/1.0/">
	<!ENTITY ns_sfw "http://ns.adobe.com/SaveForWeb/1.0/">
	<!ENTITY ns_custom "http://ns.adobe.com/GenericCustomNamespace/1.0/">
	<!ENTITY ns_adobe_xpath "http://ns.adobe.com/XPath/1.0/">
]>
<svg version="1.2" baseProfile="tiny" id="Calque_1" xmlns:x="&ns_extend;" xmlns:i="&ns_ai;" xmlns:graph="&ns_graphs;"
	 xmlns="http://www.w3.org/2000/svg" xmlns:xlink="http://www.w3.org/1999/xlink" x="0px" y="0px" viewBox="0 0 64.7 54.5"
	 xml:space="preserve">
<metadata>
	<sfw  xmlns="&ns_sfw;">
		<slices></slices>
		<sliceSourceBounds  width="62.9" height="53" y="-311.6" x="672.9" bottomLeftOrigin="true"></sliceSourceBounds>
	</sfw>
</metadata>
<g>
	<path fill="#333333" d="M9.5,35.1h34.2C42.2,41.1,39,42,36,42H13.9c-0.2,0-0.4,0-0.6,0C9.8,42,7,44.8,7,48.2c0,3.4,2.8,6.3,6.3,6.3
		c3.4,0,6.3-2.8,6.3-6.3c0-1-0.2-2-0.7-2.8h14.6c-0.4,0.8-0.7,1.8-0.7,2.8c0,3.4,2.8,6.3,6.3,6.3c3.4,0,6.3-2.8,6.3-6.3
		c0-2-1-3.8-2.5-5c2.2-1.8,3.7-4.7,4.5-8.8c0-0.2,0.2-0.7,0.2-0.7l6-28.9H63c0.9,0,1.7-0.8,1.7-1.7S63.9,1.5,63,1.5H52
		c-0.8,0-1.5,0.6-1.7,1.4L48.9,10L3.3,13.1c-0.5,0-1,0.3-1.3,0.7c-0.3,0.4-0.4,1-0.2,1.5l6.1,18.6C8.1,34.6,8.8,35.1,9.5,35.1z
		 M36.2,48.2c0-1.6,1.3-2.8,2.8-2.8c1.6,0,2.8,1.3,2.8,2.8c0,1.6-1.3,2.8-2.8,2.8C37.5,51.1,36.2,49.8,36.2,48.2z M10.4,48.2
		c0-1.5,1.1-2.7,2.5-2.8h0.6c1.4,0.2,2.5,1.4,2.5,2.8c0,1.6-1.3,2.8-2.8,2.8C11.7,51.1,10.4,49.8,10.4,48.2z M5.7,16.4l8.2-0.6
		l0.8,5.4H7.3L5.7,16.4z M38.8,31.7l1-7.1h6l-1.5,7.1H38.8z M35.4,31.7h-6.2v-7.1h7.1L35.4,31.7z M29.2,21.2v-6.4l8.6-0.6l-1,7H29.2
		z M25.8,31.7h-6.2l-1-7.1h7.2V31.7z M18.1,21.2l-0.8-5.6l8.5-0.6v6.2H18.1z M48.1,13.5l-1.6,7.7h-6.3l1-7.2L48.1,13.5z M10.7,31.7
		l-2.3-7.1h6.7l1,7.1H10.7z"/>
</g>
</svg>
