<?xml version="1.0" encoding="utf-8"?>
<!-- Generator: Adobe Illustrator 18.0.0, SVG Export Plug-In . SVG Version: 6.00 Build 0)  -->
<!DOCTYPE svg [
	<!ENTITY ns_extend "http://ns.adobe.com/Extensibility/1.0/">
	<!ENTITY ns_ai "http://ns.adobe.com/AdobeIllustrator/10.0/">
	<!ENTITY ns_graphs "http://ns.adobe.com/Graphs/1.0/">
	<!ENTITY ns_vars "http://ns.adobe.com/Variables/1.0/">
	<!ENTITY ns_imrep "http://ns.adobe.com/ImageReplacement/1.0/">
	<!ENTITY ns_sfw "http://ns.adobe.com/SaveForWeb/1.0/">
	<!ENTITY ns_custom "http://ns.adobe.com/GenericCustomNamespace/1.0/">
	<!ENTITY ns_adobe_xpath "http://ns.adobe.com/XPath/1.0/">
]>
<svg version="1.2" baseProfile="tiny" id="Layer_1" xmlns:x="&ns_extend;" xmlns:i="&ns_ai;" xmlns:graph="&ns_graphs;"
	 xmlns="http://www.w3.org/2000/svg" xmlns:xlink="http://www.w3.org/1999/xlink" x="0px" y="0px" viewBox="0 0 114 25"
	 xml:space="preserve">
<metadata>
	<sfw  xmlns="&ns_sfw;">
		<slices></slices>
		<sliceSourceBounds  height="13.7" width="111.4" bottomLeftOrigin="true" x="1.4" y="-19.5"></sliceSourceBounds>
	</sfw>
</metadata>
<g>
	<path fill="#BF202F" d="M14.8,16.5h-3.4v-3H4.8v1.2c0,0.6-0.3,1.1-0.9,1.4c-0.6,0.3-1.3,0.4-2.2,0.4H1.4v-6c0-0.6,0.3-1,0.9-1.3
		c0.5-0.3,1.2-0.4,2.1-0.4h10.4V16.5z M11.5,11.8v-1.4H4.8v1.4H11.5z"/>
</g>
<g>
	<path fill="#BF202F" d="M29.4,9.1c0,0.9-0.9,1.3-2.7,1.3h-2.3v4.5c0,0.6-0.2,1-0.5,1.2c-0.3,0.2-1,0.4-1.9,0.4h-1v-6.1h-5.1v-0.2
		c0-0.9,0.8-1.4,2.3-1.4h11.2V9.1z"/>
</g>
<g>
	<path fill="#BF202F" d="M43.6,13.4c-0.1,0.2-1,0.7-2.9,1.6c-1.8,0.9-3.1,1.4-3.7,1.7c-0.6-0.2-1.8-0.8-3.6-1.7
		c-1.9-0.9-2.8-1.5-2.9-1.6V8.8h0.3c0.8,0,1.5,0.1,2.2,0.4c0.6,0.2,0.9,0.6,0.9,1v2.6c0,0.1,0.4,0.4,1.3,0.8
		c0.8,0.4,1.4,0.7,1.9,0.9c2.2-1,3.3-1.5,3.3-1.7v-2.6c0-0.4,0.3-0.7,0.9-1c0.6-0.3,1.3-0.4,2.2-0.4h0.3V13.4z"/>
</g>
<g>
	<path fill="#BF202F" d="M55.5,5.9l-4.7,12.4c-0.2,0.6-0.6,1-1,1.2c-0.6,0.1-1.2,0.1-1.8,0l4.7-12.4c0.2-0.6,0.6-1,1-1.2
		C54.3,5.9,54.9,5.9,55.5,5.9z"/>
</g>
<g>
	<path fill="#BF202F" d="M73.8,14.9c0,1-1,1.6-3,1.6h-7.4c-0.8,0-1.5-0.1-2.1-0.4s-0.9-0.7-0.9-1.1v-4.5c0-0.4,0.3-0.8,0.9-1.1
		s1.3-0.5,2.1-0.5h7.4c2,0,3,0.5,3,1.6h-10v4.5h6.7v-1.4h-2.4c-0.8,0-1.5-0.1-2.1-0.4c-0.6-0.3-0.9-0.6-1-0.9v-0.3h8.7V14.9z"/>
</g>
<g>
	<path fill="#BF202F" d="M88.3,14.9c0,1-1,1.6-3,1.6h-7.4c-0.8,0-1.5-0.1-2.1-0.4c-0.6-0.3-0.9-0.7-0.9-1.1v-4.5
		c0-0.5,0.3-0.9,0.9-1.2C76.3,9,77,8.8,77.9,8.8h7.4c2,0,3,0.5,3,1.6V14.9z M84.9,14.9v-4.5h-6.7v4.5H84.9z"/>
</g>
<g>
	<path fill="#BF202F" d="M99.6,14.9c-0.1,1-1.1,1.6-3.1,1.6h-4.1c-2,0-3.1-0.5-3.1-1.6V8.8h0.3c2,0,3,0.5,3,1.6v4.5H99.6z"/>
</g>
<g>
	<path fill="#BF202F" d="M112.9,8.8c0,0.6-0.2,1-0.7,1.2c-0.6,0.3-1.4,0.4-2.6,0.4H104v1.4h7.1c0,0.5-0.3,0.9-1,1.2
		c-0.6,0.3-1.3,0.4-2.1,0.4h-4v1.2c0,0.9-0.5,1.5-1.5,1.7c-0.4,0.1-0.9,0.1-1.5,0.1h-0.3v-6.1c0-0.7,0.3-1.2,1-1.4
		c0.4-0.1,1.1-0.2,1.9-0.2H112.9z"/>
</g>
</svg>
