<?xml version="1.0" encoding="utf-8"?>
<!-- Generator: Adobe Illustrator 18.0.0, SVG Export Plug-In . SVG Version: 6.00 Build 0)  -->
<!DOCTYPE svg [
	<!ENTITY ns_extend "http://ns.adobe.com/Extensibility/1.0/">
	<!ENTITY ns_ai "http://ns.adobe.com/AdobeIllustrator/10.0/">
	<!ENTITY ns_graphs "http://ns.adobe.com/Graphs/1.0/">
	<!ENTITY ns_vars "http://ns.adobe.com/Variables/1.0/">
	<!ENTITY ns_imrep "http://ns.adobe.com/ImageReplacement/1.0/">
	<!ENTITY ns_sfw "http://ns.adobe.com/SaveForWeb/1.0/">
	<!ENTITY ns_custom "http://ns.adobe.com/GenericCustomNamespace/1.0/">
	<!ENTITY ns_adobe_xpath "http://ns.adobe.com/XPath/1.0/">
]>
<svg version="1.2" baseProfile="tiny" id="Layer_1" xmlns:x="&ns_extend;" xmlns:i="&ns_ai;" xmlns:graph="&ns_graphs;"
	 xmlns="http://www.w3.org/2000/svg" xmlns:xlink="http://www.w3.org/1999/xlink" x="0px" y="0px" viewBox="0 0 100 100"
	 xml:space="preserve">
<metadata>
	<sfw  xmlns="&ns_sfw;">
		<slices></slices>
		<sliceSourceBounds  height="97.8" width="97.8" bottomLeftOrigin="true" x="0.3" y="-99"></sliceSourceBounds>
	</sfw>
</metadata>
<path fill="#FFFFFF" d="M49.2,59.3c5,0,9.2-4.3,9.2-9.2s-4.3-9.2-9.2-9.2S40,45.1,40,50.1S43.9,59.3,49.2,59.3"/>
<path fill="#FFFFFF" d="M64.1,50.1c0,8.1-6.7,14.9-14.9,14.9s-14.9-6.7-14.9-14.9c0-1.4,0.4-2.8,0.4-3.9h-4.3v20.9
	c0,1.1,0.7,1.8,1.8,1.8h33.3c1.1,0,1.8-0.7,1.8-1.8V46.2H63C63.7,47.3,64.1,48.7,64.1,50.1"/>
<path fill="#FFFFFF" d="M65.8,31.3h-5.7c-1.1,0-1.8,0.7-1.8,1.8v5.7c0,1.1,0.7,1.8,1.8,1.8h5.7c1.1,0,1.8-0.7,1.8-1.8v-5.7
	C67.6,32,66.9,31.3,65.8,31.3"/>
<path fill="#FFFFFF" d="M73.3,68.9c0,3.2-2.5,5.7-5.7,5.7H30.4c-2.8,0-5.3-2.5-5.3-5.7V31.3c0-3.2,2.5-5.7,5.7-5.7h36.8
	c3.2,0,5.7,2.5,5.7,5.7V68.9z M49.2,1.2c-26.9,0-48.9,22-48.9,48.9S22.3,99,49.2,99s48.9-22,48.9-48.9C97.7,23.2,76.1,1.2,49.2,1.2"
	/>
</svg>
