<?xml version="1.0" encoding="utf-8"?>
<!-- Generator: Adobe Illustrator 18.0.0, SVG Export Plug-In . SVG Version: 6.00 Build 0)  -->
<!DOCTYPE svg [
	<!ENTITY ns_extend "http://ns.adobe.com/Extensibility/1.0/">
	<!ENTITY ns_ai "http://ns.adobe.com/AdobeIllustrator/10.0/">
	<!ENTITY ns_graphs "http://ns.adobe.com/Graphs/1.0/">
	<!ENTITY ns_vars "http://ns.adobe.com/Variables/1.0/">
	<!ENTITY ns_imrep "http://ns.adobe.com/ImageReplacement/1.0/">
	<!ENTITY ns_sfw "http://ns.adobe.com/SaveForWeb/1.0/">
	<!ENTITY ns_custom "http://ns.adobe.com/GenericCustomNamespace/1.0/">
	<!ENTITY ns_adobe_xpath "http://ns.adobe.com/XPath/1.0/">
]>
<svg version="1.2" baseProfile="tiny" id="Layer_1" xmlns:x="&ns_extend;" xmlns:i="&ns_ai;" xmlns:graph="&ns_graphs;"
	 xmlns="http://www.w3.org/2000/svg" xmlns:xlink="http://www.w3.org/1999/xlink" x="0px" y="0px" viewBox="0 0 65 100"
	 xml:space="preserve">
<metadata>
	<sfw  xmlns="&ns_sfw;">
		<slices></slices>
		<sliceSourceBounds  height="95.7" width="62.9" bottomLeftOrigin="true" x="1" y="-97.8"></sliceSourceBounds>
	</sfw>
</metadata>
<path fill="#333333" d="M32.5,25.4c-4.6,0-8.2,3.6-8.2,8.2s3.6,8.2,8.2,8.2s8.2-3.7,8.2-8.2S37,25.4,32.5,25.4 M32.5,52.6
	c-10.5,0-18.9-8.5-18.9-18.9c0-10.5,8.5-18.9,18.9-18.9s18.9,8.5,18.9,18.9C51.4,44.1,42.9,52.6,32.5,52.6 M32.5,2.2
	C15.1,2.2,1,16.2,1,33.6c0,5.6,1.5,10.8,4,15.4l27.4,48.8L59.8,49c2.6-4.6,4-9.8,4-15.4C63.9,16.2,49.8,2.2,32.5,2.2"/>
</svg>
