<?xml version="1.0" encoding="utf-8"?>
<!-- Generator: Adobe Illustrator 18.0.0, SVG Export Plug-In . SVG Version: 6.00 Build 0)  -->
<!DOCTYPE svg [
	<!ENTITY ns_extend "http://ns.adobe.com/Extensibility/1.0/">
	<!ENTITY ns_ai "http://ns.adobe.com/AdobeIllustrator/10.0/">
	<!ENTITY ns_graphs "http://ns.adobe.com/Graphs/1.0/">
	<!ENTITY ns_vars "http://ns.adobe.com/Variables/1.0/">
	<!ENTITY ns_imrep "http://ns.adobe.com/ImageReplacement/1.0/">
	<!ENTITY ns_sfw "http://ns.adobe.com/SaveForWeb/1.0/">
	<!ENTITY ns_custom "http://ns.adobe.com/GenericCustomNamespace/1.0/">
	<!ENTITY ns_adobe_xpath "http://ns.adobe.com/XPath/1.0/">
]>
<svg version="1.2" baseProfile="tiny" id="Layer_1" xmlns:x="&ns_extend;" xmlns:i="&ns_ai;" xmlns:graph="&ns_graphs;"
	 xmlns="http://www.w3.org/2000/svg" xmlns:xlink="http://www.w3.org/1999/xlink" x="0px" y="0px" viewBox="0 0 75 25"
	 xml:space="preserve">
<metadata>
	<sfw  xmlns="&ns_sfw;">
		<slices></slices>
		<sliceSourceBounds  height="6.1" width="72.6" bottomLeftOrigin="true" x="1.1" y="-15.6"></sliceSourceBounds>
	</sfw>
</metadata>
<g>
	<path d="M1.1,15.2c1.6-0.1,1.7-0.1,1.8-0.3c0.1-0.3,0.1-0.9,0.1-2.2s0-2-0.1-2.2c-0.1-0.2-0.1-0.3-1.8-0.3V9.7h4.1
		c0,0.1,0,0.2,0.1,0.2L8,14.3h0l3-4.6h4v0.4c-1.6,0.1-1.7,0.1-1.8,0.3c-0.1,0.3-0.1,0.9-0.1,2.2s0,2,0.1,2.2c0,0.2,0.1,0.3,1.8,0.3
		v0.4H9.8v-0.4c1.6-0.1,1.7-0.1,1.7-0.3v-4.6h0L8.3,15c-0.1,0.1-0.2,0.3-0.3,0.4H6.9c0-0.1-0.1-0.2-0.2-0.4l-3-4.8h0v3.8
		c0,0.3,0.1,0.6,0.1,0.8c0.1,0.2,0.1,0.3,1.6,0.3v0.4H1.1V15.2z"/>
	<path d="M15.4,15.2c1.6-0.1,1.7-0.1,1.8-0.3c0.1-0.3,0.1-0.9,0.1-2.2s0-2-0.1-2.2c0-0.2-0.1-0.3-1.8-0.3V9.7h5.4v0.4
		c-1.6,0.1-1.7,0.1-1.8,0.3C19,10.7,19,11.3,19,12.6s0,2,0.1,2.2c0,0.2,0.1,0.3,1.8,0.3v0.4h-5.4V15.2z"/>
	<path d="M21.4,15.2c1.5-0.1,1.6-0.1,1.7-0.3c0.1-0.3,0.1-0.9,0.1-2.2s0-2-0.1-2.2c0-0.2-0.1-0.3-1.7-0.3V9.7h5.2v0.4
		c-1.5,0.1-1.6,0.1-1.7,0.3c0,0.2-0.1,0.7-0.1,1.1v3.3c0,0.3,0.2,0.4,0.6,0.4h1.9c1.6,0,1.8-0.3,2.7-1.4l0.7,0.1
		c-0.2,0.3-0.4,1.3-0.5,1.7h-9L21.4,15.2L21.4,15.2z"/>
	<path d="M31.3,15.2c1.2,0,1.4-0.3,1.9-0.9l2.6-3.6c0.4-0.6,0.5-0.8,0.7-1.1h0.8c0.1,0.3,0.4,0.7,0.6,1l3,4c0.4,0.5,0.5,0.6,1.8,0.6
		v0.4h-5.1v-0.4c1.5,0,1.6-0.1,1.6-0.3c0-0.2-0.6-1.1-0.7-1.2c0,0-0.1-0.1-0.2-0.1c-0.4,0-1.1,0-2.7,0c-0.9,0-1,0-1.1,0.2
		c-0.4,0.5-0.6,0.9-0.6,1c0,0.3,0.2,0.3,1.6,0.4v0.4h-4L31.3,15.2L31.3,15.2z M37.8,13.2c0.1,0,0.2,0,0.2,0c0,0-0.1-0.1-0.1-0.2
		l-1.4-2.1L34.9,13c0,0.1-0.1,0.1-0.1,0.1c0,0,0.1,0,0.2,0H37.8z"/>
	<path d="M43.3,15.2c1.4-0.1,1.5-0.1,1.6-0.3c0.1-0.3,0.1-0.9,0.1-2.2s0-2-0.1-2.2c0-0.2-0.1-0.3-1.6-0.3V9.7h3.1
		c0.1,0.1,0.3,0.2,0.5,0.4l4.7,3.8h0v-1.3c0-1.3,0-2-0.1-2.2c0-0.2-0.1-0.3-1.8-0.3V9.7h4.3v0.4c-1.4,0-1.5,0-1.6,0.5
		c0,0.4-0.1,1-0.1,1.4c0,1.6,0,3,0.1,3.6h-1.1c-0.6-0.7-1.2-1.1-2-1.8L45.8,11h0v1.7c0,1.3,0,2,0.1,2.2c0,0.2,0.1,0.3,2,0.3v0.4
		h-4.5L43.3,15.2L43.3,15.2z"/>
	<path d="M55,15.2c1.4-0.1,1.5-0.1,1.6-0.3c0.1-0.3,0.1-0.9,0.1-2.2s0-2-0.1-2.2c0-0.2-0.1-0.3-1.6-0.3V9.7h3.1
		c0.1,0.1,0.3,0.2,0.5,0.4l4.7,3.8h0v-1.3c0-1.3,0-2-0.1-2.2c0-0.2-0.1-0.3-1.8-0.3V9.7h4.3v0.4c-1.4,0-1.5,0-1.6,0.5
		c0,0.4-0.1,1-0.1,1.4c0,1.6,0,3,0.1,3.6h-1.1c-0.6-0.7-1.2-1.1-2-1.8L57.5,11h0v1.7c0,1.3,0,2,0.1,2.2c0,0.2,0.1,0.3,2,0.3v0.4H55
		L55,15.2L55,15.2z"/>
	<path d="M66.5,15.2c1.6-0.1,1.7-0.1,1.8-0.3c0.1-0.3,0.1-0.9,0.1-2.2s0-2-0.1-2.2c0-0.2-0.1-0.3-1.8-0.3V9.7h5.4v0.4
		c-1.6,0.1-1.7,0.1-1.8,0.3c-0.1,0.3-0.1,0.9-0.1,2.2s0,2,0.1,2.2c0,0.2,0.1,0.3,1.8,0.3v0.4h-5.4V15.2z"/>
</g>
<g>
	<path d="M72.4,15.6v-0.7h-0.2v-0.1h0.6v0.1h-0.2v0.7H72.4z"/>
	<path d="M72.9,15.6v-0.8h0.2l0.2,0.6l0.1-0.6h0.2v0.8h-0.2v-0.6l-0.2,0.6h-0.2l-0.2-0.6v0.6H72.9z"/>
</g>
</svg>
