<?xml version="1.0" encoding="utf-8"?>
<!-- Generator: Adobe Illustrator 18.0.0, SVG Export Plug-In . SVG Version: 6.00 Build 0)  -->
<!DOCTYPE svg [
	<!ENTITY ns_extend "http://ns.adobe.com/Extensibility/1.0/">
	<!ENTITY ns_ai "http://ns.adobe.com/AdobeIllustrator/10.0/">
	<!ENTITY ns_graphs "http://ns.adobe.com/Graphs/1.0/">
	<!ENTITY ns_vars "http://ns.adobe.com/Variables/1.0/">
	<!ENTITY ns_imrep "http://ns.adobe.com/ImageReplacement/1.0/">
	<!ENTITY ns_sfw "http://ns.adobe.com/SaveForWeb/1.0/">
	<!ENTITY ns_custom "http://ns.adobe.com/GenericCustomNamespace/1.0/">
	<!ENTITY ns_adobe_xpath "http://ns.adobe.com/XPath/1.0/">
]>
<svg version="1.2" baseProfile="tiny" id="Layer_1" xmlns:x="&ns_extend;" xmlns:i="&ns_ai;" xmlns:graph="&ns_graphs;"
	 xmlns="http://www.w3.org/2000/svg" xmlns:xlink="http://www.w3.org/1999/xlink" x="0px" y="0px" viewBox="0 0 75 25"
	 xml:space="preserve">
<metadata>
	<sfw  xmlns="&ns_sfw;">
		<slices></slices>
		<sliceSourceBounds  height="21.5" width="74.9" bottomLeftOrigin="true" x="0" y="-23.4"></sliceSourceBounds>
	</sfw>
</metadata>
<g>
	<path fill="#2A2D2E" d="M12,19.9c0,0.2-0.1,0.4-0.1,0.5c-0.1,0.1-0.2,0.2-0.4,0.2c-0.1,0-0.1,0-0.1,0c-0.1,0-0.1,0-0.2,0
		c0,0,0,0-0.1,0c0,0-0.1,0-0.1,0c0,0,0,0-0.1,0c-0.1,0-0.1,0-0.2,0c0,0-0.1,0-0.1,0c-0.1,0-0.1,0-0.2,0c-0.4,0-0.8,0-1.3,0
		c0,0.2,0,0.4,0,0.6c0.7,0,1.5,0,2.2,0c0,0.3-0.1,0.5-0.4,0.6c-0.1,0-0.2,0.1-0.3,0.1c-0.1,0-0.1,0-0.2,0c0,0,0,0-0.1,0
		s-0.1,0-0.1,0c0,0-0.1,0-0.1,0s-0.1,0-0.1,0c-0.1,0-0.2,0-0.2,0c-0.3,0-0.5,0-0.8,0c0,0.2,0,0.3,0,0.5c0,0.1,0,0.2,0,0.3
		c-0.1,0.2-0.2,0.4-0.4,0.5c-0.1,0-0.2,0-0.3,0c-0.1,0-0.2,0-0.3,0c0-0.7,0-1.4,0-2.1c0-0.2,0-0.3,0-0.5c0-0.1,0-0.2,0-0.3
		c0-0.1,0.1-0.2,0.1-0.2c0,0,0.1-0.1,0.1-0.1c0,0,0,0,0.1-0.1c0,0,0.1-0.1,0.1-0.1c0.1-0.1,0.2-0.1,0.3-0.1c0,0,0,0,0.1,0
		c0.1,0,0.1,0,0.2,0c0.1,0,0.3,0,0.4,0C10.3,19.9,11.2,19.9,12,19.9z"/>
	<path fill="#2A2D2E" d="M16.3,19.9c0,0.2-0.1,0.4-0.1,0.5c-0.1,0.1-0.2,0.2-0.4,0.2c-0.1,0-0.1,0-0.1,0c-0.1,0-0.1,0-0.2,0
		c0,0,0,0-0.1,0c0,0-0.1,0-0.1,0c0,0,0,0-0.1,0c-0.1,0-0.1,0-0.2,0c0,0-0.1,0-0.1,0c-0.1,0-0.1,0-0.2,0c-0.4,0-0.8,0-1.3,0
		c0,0.2,0,0.4,0,0.6c0.7,0,1.5,0,2.2,0c0,0.3-0.1,0.5-0.4,0.6c-0.1,0-0.2,0.1-0.3,0.1c-0.1,0-0.1,0-0.2,0c0,0,0,0-0.1,0
		s-0.1,0-0.1,0c0,0-0.1,0-0.1,0s-0.1,0-0.1,0c-0.1,0-0.2,0-0.2,0c-0.3,0-0.5,0-0.8,0c0,0.2,0,0.3,0,0.5c0,0.1,0,0.2,0,0.3
		c-0.1,0.2-0.2,0.4-0.4,0.5c-0.1,0-0.2,0-0.3,0c-0.1,0-0.2,0-0.3,0c0-0.7,0-1.4,0-2.1c0-0.2,0-0.3,0-0.5c0-0.1,0-0.2,0-0.3
		c0-0.1,0.1-0.2,0.1-0.2c0,0,0.1-0.1,0.1-0.1c0,0,0,0,0.1-0.1c0,0,0.1-0.1,0.1-0.1c0.1-0.1,0.2-0.1,0.3-0.1c0,0,0,0,0.1,0
		c0.1,0,0.1,0,0.2,0c0.1,0,0.3,0,0.4,0C14.6,19.9,15.5,19.9,16.3,19.9z"/>
	<path fill="#2A2D2E" d="M18.9,19.9c0.9,0,1.8,0,2.7,0c0.2,0,0.4,0,0.6,0c0.1,0,0.1,0,0.2,0c0,0,0.1,0,0.1,0s0.1,0,0.1,0
		c0,0,0.1,0,0.1,0c0.1,0,0.2,0.1,0.2,0.1c0.1,0.1,0.2,0.2,0.2,0.3c0,0.1,0,0.1,0,0.2s0,0.1,0,0.2c0,0.1,0,0.2,0,0.3
		c0,0.2,0,0.3,0,0.5c-0.1,0.3-0.3,0.4-0.5,0.5c-0.1,0-0.2,0-0.3,0l0,0c0,0,0.9,1.3,1,1.4c-0.4,0-0.8,0-1.3,0c-0.5-0.7-1-1.4-1.5-2.1
		c0.5,0,1.1,0,1.6,0c0-0.2,0-0.4,0-0.7c-0.1,0-2.1,0-2.1,0c0,0.5,0,1.8,0,1.9c0,0.1,0,0.2,0,0.2c0,0.1,0,0.1,0,0.2
		c0,0.1-0.1,0.1-0.1,0.2c0,0,0,0-0.1,0.1c0,0-0.1,0.1-0.1,0.1c-0.1,0-0.1,0.1-0.2,0.1c-0.1,0-0.1,0-0.2,0c-0.1,0-0.2,0-0.3,0
		C18.9,22.6,18.9,20,18.9,19.9z"/>
	<path fill="#2A2D2E" d="M32.9,19.9c0.9,0,3.1,0,3.3,0c0.1,0,0.3,0,0.3,0c0.1,0,0.2,0.1,0.3,0.2c0,0,0.1,0.1,0.1,0.1c0,0,0,0,0,0
		c0,0.1,0.1,0.1,0.1,0.2c0,0.1,0,0.1,0.1,0.2c0,0.1,0,0.1,0,0.2c0,0.1,0,1.9,0,2c0,0,0,0,0,0.1c0,0.1,0,0.2-0.1,0.2
		c-0.1,0.2-0.3,0.3-0.5,0.4c-0.1,0-0.2,0-0.3,0c-0.2,0-2.2,0-2.4,0c-0.1,0-0.3,0-0.3,0c-0.1,0-0.2,0-0.2-0.1
		c-0.2-0.1-0.3-0.3-0.4-0.5c0,0,0,0,0-0.1c0-0.1,0-0.1,0-0.2c0-0.1,0-0.2,0-0.3c0-0.3,0-0.7,0-1c0.3,0,0.7,0,1.1,0
		c0,0.5,0,0.9,0,1.4c0.7,0,1.4,0,2.1,0c0-0.7,0-1.4,0-2c-0.2,0-2.1,0-2.2,0c0,0,0,0-0.1,0c-0.1,0-0.1,0-0.2,0c-0.1,0-0.1,0-0.2,0
		c-0.1,0-0.2-0.1-0.3-0.1c0,0-0.1,0-0.1-0.1c0,0,0,0-0.1-0.1c0,0-0.1-0.1-0.1-0.1C33,20.2,32.9,20.1,32.9,19.9z"/>
	<path fill="#2A2D2E" d="M7.8,22.5c0-0.2,0-1.7,0-1.8c0-0.1,0-0.2,0-0.2c0-0.1-0.1-0.2-0.2-0.3c0,0-0.1-0.1-0.1-0.1c0,0,0,0,0,0
		c0,0-0.1,0-0.1-0.1c-0.1,0-0.2-0.1-0.2-0.1c-0.1,0-0.1,0-0.2,0c-0.1,0-1.9,0-2.6,0c0,0-0.1,0-0.1,0c-0.1,0-0.1,0-0.2,0
		c-0.2,0.1-0.3,0.2-0.4,0.3c-0.1,0.1-0.1,0.2-0.1,0.3c0,0.1,0,0.1,0,0.2c0,0.1,0,1.7,0,1.8c0,0.1,0,0.2,0,0.3c0,0.1,0.1,0.2,0.2,0.3
		c0,0,0,0,0.1,0.1c0.1,0.1,0.2,0.2,0.4,0.2c0.1,0,0.1,0,0.2,0c0.1,0,2.4,0,2.5,0c0.1,0,0.1,0,0.2,0c0.1,0,0.1,0,0.2-0.1
		c0.1,0,0.1-0.1,0.2-0.1c0,0,0,0,0,0c0,0,0.1-0.1,0.1-0.1C7.7,23,7.8,23,7.8,22.8C7.8,22.7,7.8,22.6,7.8,22.5z M6.8,22.7
		c-0.7,0-1.4,0-2.1,0c0-0.7,0-1.4,0-2c0.7,0,1.4,0,2.1,0C6.8,21.3,6.8,22,6.8,22.7z"/>
	<path fill="#2A2D2E" d="M27.9,22.5c0-0.2,0-0.4,0-0.6c0-0.3,0-0.6,0-1c0-0.1,0-0.2,0-0.3c0-0.1,0-0.2,0-0.2c0-0.1-0.1-0.2-0.2-0.3
		c0,0-0.1-0.1-0.1-0.1c0,0,0,0,0,0c0,0-0.1,0-0.1-0.1c-0.1,0-0.2-0.1-0.2-0.1c-0.1,0-0.1,0-0.2,0c-0.1,0-0.3,0-0.4,0
		c-0.7,0-1.5,0-2.2,0c0,0-0.1,0-0.1,0c-0.1,0-0.1,0-0.2,0c-0.2,0.1-0.3,0.2-0.4,0.3c-0.1,0.1-0.1,0.2-0.1,0.3c0,0.1,0,0.1,0,0.2
		c0,0.1,0,0.2,0,0.3c0,0.4,0,0.7,0,1.1c0,0.1,0,0.2,0,0.4c0,0.1,0,0.2,0,0.3c0,0.1,0.1,0.2,0.2,0.3c0,0,0,0,0.1,0.1
		c0.1,0.1,0.2,0.2,0.4,0.2c0.1,0,0.1,0,0.2,0c0.1,0,0.2,0,0.4,0c0.3,0,0.7,0,1,0c0.3,0,0.6,0,0.9,0c0.1,0,0.2,0,0.3,0
		c0.1,0,0.1,0,0.2,0c0.1,0,0.1,0,0.2-0.1c0.1,0,0.1-0.1,0.2-0.1c0,0,0,0,0,0c0,0,0.1-0.1,0.1-0.1c0.1-0.1,0.1-0.2,0.2-0.3
		C27.9,22.7,27.9,22.6,27.9,22.5z M26.9,22.7c-0.7,0-1.4,0-2.1,0c0-0.7,0-1.4,0-2c0.7,0,1.4,0,2.1,0C26.9,21.3,26.9,22,26.9,22.7z"
		/>
	<path fill="#2A2D2E" d="M29.7,19.9c-0.2,0-0.3,0-0.5,0c-0.1,0-0.2,0-0.3,0c-0.1,0-0.2,0.1-0.3,0.1c0,0-0.1,0-0.1,0.1l0,0
		c0,0,0,0-0.1,0.1c-0.1,0.1-0.1,0.2-0.2,0.3c0,0.1,0,0.2,0,0.3c0,0.2,0,0.3,0,0.5c0,0.7,0,1.4,0,2.1c0.1,0,0.2,0,0.3,0
		c0.1,0,0.2,0,0.3,0c0.2-0.1,0.4-0.2,0.4-0.5c0-0.1,0-0.2,0-0.3c0-0.2,0-0.3,0-0.5c0.7,0,1.4,0,2.1,0c0,0.5,0,0.9,0,1.4
		c0.3,0,0.7,0,1.1,0c0-1.2,0-2.3,0-3.5C31.6,19.9,30.7,19.9,29.7,19.9z M31.5,21.3c-0.7,0-1.4,0-2.1,0c0-0.2,0-0.4,0-0.6
		c0.5,0,1.9,0,2.1,0C31.5,20.8,31.5,21.2,31.5,21.3z"/>
	<path fill="#2A2D2E" d="M18.5,21.3c0,0.2,0,0.3-0.1,0.4c0,0,0,0-0.1,0.1c0,0,0,0,0,0.1c-0.1,0.1-0.1,0.1-0.2,0.1
		c-0.1,0-0.1,0-0.2,0.1c0,0-0.1,0-0.1,0c0,0-0.1,0-0.1,0c0,0,0,0,0,0c-0.1,0-0.1,0-0.2,0c0,0,0,0-0.1,0c0,0-0.1,0-0.1,0
		c0,0-0.1,0-0.1,0c-0.1,0-0.1,0-0.1,0c-0.2,0-0.3,0-0.5,0c0-0.2,0-0.3,0.1-0.4c0,0,0,0,0.1-0.1c0,0,0,0,0-0.1
		c0.1-0.1,0.1-0.1,0.2-0.1c0.1,0,0.1,0,0.2-0.1c0,0,0.1,0,0.1,0c0,0,0.1,0,0.1,0c0,0,0,0,0,0c0.1,0,0.1,0,0.2,0c0,0,0,0,0.1,0
		c0,0,0.1,0,0.1,0c0,0,0.1,0,0.1,0c0.1,0,0.1,0,0.1,0C18.2,21.3,18.4,21.3,18.5,21.3z"/>
	<path fill="#2A2D2E" d="M15.1,8.5c-0.6,0-1.1,0.1-1.6,0.2c-0.8,0.2-1.1,0.5-1.1,0.9v2.1c0,0.1-0.4,0.3-1.2,0.6
		c-0.4,0.2-0.7,0.3-1,0.4l-0.7,0.3c-0.1,0-0.6-0.3-1.7-0.7c-0.8-0.3-1.2-0.6-1.2-0.7V9.7c0-0.4-0.4-0.7-1.1-0.9
		C5,8.6,4.4,8.5,3.9,8.5H3.6v3.7c0,0.1,0.5,0.3,1.3,0.7c0.6,0.3,1.4,0.7,2.6,1.1c0.4,0.2,1.1,0.4,1.9,0.8c0.4-0.1,1-0.4,2-0.8
		l1.4-0.6c0.7-0.3,1.4-0.6,2.2-1c0.3-0.1,0.4-0.2,0.4-0.3V8.5H15.1L15.1,8.5z"/>
	<path fill="#2A2D2E" d="M16.6,8.5v4.9c0,0.4,0.3,0.8,1.1,1c0.5,0.2,1,0.3,1.6,0.3h0.3V9.8c0-0.9-0.9-1.3-2.7-1.3L16.6,8.5L16.6,8.5
		z"/>
	<path fill="#2A2D2E" d="M23.5,8.5c-1.2,0-2.1,0.3-2.5,0.8c-0.2,0.2-0.2,0.4-0.2,0.6v1c0,0.5,0.3,0.8,1.1,1.1c0.5,0.2,1,0.2,1.7,0.2
		h6.4v1.1h-9.1c0,0.5,0.4,0.8,1.1,1c0.5,0.2,1.1,0.2,1.7,0.2h6.3c1.9,0,2.9-0.4,2.9-1.3v-1.2c0-0.8-0.9-1.2-2.8-1.2h-6.2V9.8h9
		c0-0.9-0.9-1.3-2.8-1.3L23.5,8.5L23.5,8.5z"/>
	<path fill="#2A2D2E" d="M34,8.5v4.9c0,0.4,0.3,0.8,1.1,1c0.5,0.2,1,0.3,1.6,0.3H37V9.8c0-0.9-0.9-1.3-2.7-1.3L34,8.5L34,8.5z"/>
	<path fill="#2A2D2E" d="M68.8,8.5c-1.8,0-2.7,0.4-2.7,1.2V12c-0.2-0.2-0.6-0.4-1.1-0.7c0,0-0.1,0-0.1-0.1l-3.2-2.1
		c-0.7-0.4-1.6-0.6-2.8-0.6h-0.6v6.1h3v-3.5l1.2,0.8l3.2,2.1c0.7,0.4,1.6,0.6,2.8,0.6h0.6v-1.5l-0.7,0.4V9.5l0.7,0.4V8.5L68.8,8.5
		L68.8,8.5z"/>
	<polygon fill="#BE1E2D" points="71.9,11.6 69.1,9.9 69.1,13.2 	"/>
	<path fill="#2A2D2E" d="M38.3,11.6c1.6-3.2,5.8-5.6,9.6-5.1c3,0.4,5.7,2.5,7,5.1c-1.5,3-4.3,6.4-7,6.4c3.4,0,7.8-2.8,9.6-6.4
		c-1.7-3.4-5.6-6.4-9.6-6.4C43.9,5.2,40,8.1,38.3,11.6"/>
	<path fill="#BE1E2D" d="M51.2,13.2c0,0.2-0.1,0.3-0.2,0.4c-0.3,0.4-1,0.5-2,0.5h-2.2v0.9h-0.7v-0.9h-2.3c-0.5,0-0.9-0.1-1.3-0.2
		c-0.6-0.2-0.8-0.5-0.8-0.8V12h-1v-0.6h1v-1.1c0-0.1,0.1-0.3,0.2-0.4c0.3-0.4,1-0.6,1.9-0.6h2.3V8.3h0.7v0.9H49c1.4,0,2.2,0.3,2.2,1
		v1.1h1V12h-1V13.2z M48.9,12h-1v-0.6h1v-1.1h-2V11h-0.7v-0.7h-2.1v1.1h1V12h-1v1.1h2.1v-0.9h0.7v0.9h2V12z"/>
	<path fill="#2A2D2E" d="M72.9,4.3H55.2c-1.8-1.2-4.3-2.4-7.6-2.4c-3.3,0-5.9,1.1-7.7,2.4H2c-1.1,0-2,0.9-2,2v10.3c0,1.1,0.9,2,2,2
		h37.5c1.9,1.3,4.6,2.6,8.1,2.6s6.1-1.3,7.9-2.6h17.3c1.1,0,2-0.9,2-2V6.3C74.9,5.2,74,4.3,72.9,4.3z M73.5,16.6
		c0,0.4-0.3,0.7-0.7,0.7H57.1h-2c-0.6,0.4-1.3,0.9-2.1,1.3c-1.4,0.7-3.3,1.4-5.5,1.4c-2.2,0-4.1-0.6-5.5-1.4
		c-0.9-0.4-1.6-0.9-2.1-1.3h-2.1H2c-0.4,0-0.7-0.3-0.7-0.7V6.3c0-0.4,0.3-0.7,0.7-0.7h36.1h2.1c0.6-0.5,1.4-0.9,2.3-1.3
		c1.4-0.6,3.1-1.1,5-1.1c1.9,0,3.6,0.5,5,1.1c0.9,0.4,1.7,0.9,2.3,1.3h2h16c0.4,0,0.7,0.3,0.7,0.7L73.5,16.6
		C73.5,16.6,73.5,16.6,73.5,16.6z"/>
	<g>
		<path d="M69.8,13.8V14h-0.1v0.7h-0.2V14h-0.1v-0.2H69.8z"/>
		<path d="M70.5,13.8v0.8h-0.2v-0.6l-0.1,0.6h-0.1l-0.1-0.5v0.5h-0.2v-0.8h0.3c0,0,0,0.1,0,0.2l0,0.2l0-0.4H70.5z"/>
	</g>
</g>
</svg>
