<?xml version="1.0" encoding="utf-8"?>
<!-- Generator: Adobe Illustrator 18.0.0, SVG Export Plug-In . SVG Version: 6.00 Build 0)  -->
<!DOCTYPE svg [
	<!ENTITY ns_extend "http://ns.adobe.com/Extensibility/1.0/">
	<!ENTITY ns_ai "http://ns.adobe.com/AdobeIllustrator/10.0/">
	<!ENTITY ns_graphs "http://ns.adobe.com/Graphs/1.0/">
	<!ENTITY ns_vars "http://ns.adobe.com/Variables/1.0/">
	<!ENTITY ns_imrep "http://ns.adobe.com/ImageReplacement/1.0/">
	<!ENTITY ns_sfw "http://ns.adobe.com/SaveForWeb/1.0/">
	<!ENTITY ns_custom "http://ns.adobe.com/GenericCustomNamespace/1.0/">
	<!ENTITY ns_adobe_xpath "http://ns.adobe.com/XPath/1.0/">
]>
<svg version="1.2" baseProfile="tiny" id="Layer_1" xmlns:x="&ns_extend;" xmlns:i="&ns_ai;" xmlns:graph="&ns_graphs;"
	 xmlns="http://www.w3.org/2000/svg" xmlns:xlink="http://www.w3.org/1999/xlink" x="0px" y="0px" viewBox="0 0 100 100"
	 xml:space="preserve">
<metadata>
	<sfw  xmlns="&ns_sfw;">
		<slices></slices>
		<sliceSourceBounds  height="97.9" width="98.2" bottomLeftOrigin="true" x="0.6" y="-98.8"></sliceSourceBounds>
	</sfw>
</metadata>
<path fill="#333333" d="M53.4,53.7c-9.8,9.8-25.6,9.8-35.4,0s-9.8-25.6,0-35.4s25.6-9.8,35.4,0S63.2,43.8,53.4,53.7 M60.6,11.1
	c-13.7-13.7-36-13.7-49.7,0s-13.7,36,0,49.7c12.5,12.5,32.4,13.7,46.1,3l10.7,14.9c1.5,2.1,5.7,6.5,5.7,6.5L85,96.8
	c2.7,2.7,6.8,2.7,9.5,0l2.4-2.4c2.7-2.7,2.7-6.8,0-9.5L85,73.6c-1.8-1.8-4.8-4.2-6.5-5.7L63.5,57.2C74,43.6,73,23.6,60.6,11.1"/>
</svg>
