<?xml version="1.0" encoding="utf-8"?>
<!-- Generator: Adobe Illustrator 18.0.0, SVG Export Plug-In . SVG Version: 6.00 Build 0)  -->
<!DOCTYPE svg PUBLIC "-//W3C//DTD SVG 1.0//EN" "http://www.w3.org/TR/2001/REC-SVG-20010904/DTD/svg10.dtd" [
	<!ENTITY ns_extend "http://ns.adobe.com/Extensibility/1.0/">
	<!ENTITY ns_ai "http://ns.adobe.com/AdobeIllustrator/10.0/">
	<!ENTITY ns_graphs "http://ns.adobe.com/Graphs/1.0/">
	<!ENTITY ns_vars "http://ns.adobe.com/Variables/1.0/">
	<!ENTITY ns_imrep "http://ns.adobe.com/ImageReplacement/1.0/">
	<!ENTITY ns_sfw "http://ns.adobe.com/SaveForWeb/1.0/">
	<!ENTITY ns_custom "http://ns.adobe.com/GenericCustomNamespace/1.0/">
	<!ENTITY ns_adobe_xpath "http://ns.adobe.com/XPath/1.0/">
]>
<svg version="1.0" id="Layer_1" xmlns:x="&ns_extend;" xmlns:i="&ns_ai;" xmlns:graph="&ns_graphs;"
	 xmlns="http://www.w3.org/2000/svg" xmlns:xlink="http://www.w3.org/1999/xlink" x="0px" y="0px" viewBox="0 0 75 25"
	 enable-background="new 0 0 75 25" xml:space="preserve">
<metadata>
	<sfw  xmlns="&ns_sfw;">
		<slices></slices>
		<sliceSourceBounds  height="14.6" width="72.7" bottomLeftOrigin="true" x="0.9" y="4.2"></sliceSourceBounds>
	</sfw>
</metadata>
<path fill="#231F20" d="M29.2,16.4h-3.9c-0.2,0-0.5,0-0.7-0.1c-0.2-0.1-0.4-0.2-0.6-0.4c-0.2-0.2-0.3-0.4-0.4-0.6
	c-0.1-0.2-0.1-0.5-0.1-0.7c0-0.2,0-0.5,0.1-0.7c0.1-0.2,0.2-0.4,0.4-0.5c0.2-0.2,0.4-0.3,0.6-0.4c0.2-0.1,0.4-0.1,0.7-0.1h3.9
	c0.2,0,0.5,0,0.7,0.1c0.2,0.1,0.4,0.2,0.5,0.4c0.2,0.2,0.3,0.3,0.4,0.5c0.1,0.2,0.1,0.4,0.1,0.7s0,0.5-0.1,0.7
	c-0.1,0.2-0.2,0.4-0.4,0.6c-0.2,0.2-0.3,0.3-0.6,0.4C29.6,16.4,29.4,16.4,29.2,16.4z M26.6,15.6h1.2c0.3,0,0.5-0.1,0.7-0.3
	c0.2-0.2,0.3-0.4,0.3-0.7c0-0.1,0-0.3-0.1-0.4c-0.1-0.1-0.1-0.2-0.2-0.3c-0.1-0.1-0.2-0.1-0.3-0.2c-0.1,0-0.3-0.1-0.4-0.1h-1.2
	c-0.1,0-0.3,0-0.4,0.1c-0.1,0.1-0.2,0.1-0.3,0.2c-0.1,0.1-0.2,0.2-0.2,0.3c-0.1,0.1-0.1,0.2-0.1,0.4c0,0.3,0.1,0.5,0.3,0.7
	C26.1,15.5,26.3,15.6,26.6,15.6z"/>
<path fill="#231F20" d="M31.3,12.9h2.1l2.8,2.1v-2.1h2.2v3.5h-2.1l-2.9-2.2v2.2h-2.1V12.9z"/>
<path fill="#231F20" d="M51.5,13.7h-3.1c-0.3,0-0.5,0.1-0.7,0.3c-0.2,0.2-0.3,0.4-0.3,0.7c0,0.1,0,0.3,0.1,0.4
	c0.1,0.1,0.1,0.2,0.2,0.3c0.1,0.1,0.2,0.2,0.3,0.2c0.1,0.1,0.2,0.1,0.4,0.1h3.8l-0.7,0.8h-4.6c-0.2,0-0.5,0-0.7-0.1
	c-0.2-0.1-0.4-0.2-0.6-0.4c-0.2-0.2-0.3-0.3-0.4-0.6c-0.1-0.2-0.1-0.4-0.1-0.7c0-0.2,0-0.5,0.1-0.7c0.1-0.2,0.2-0.4,0.4-0.6
	c0.2-0.2,0.3-0.3,0.6-0.4c0.2-0.1,0.4-0.1,0.7-0.1h5.3L51.5,13.7z M48.4,14.4h2.8L50.6,15h-2.9L48.4,14.4z"/>
<path fill="#231F20" d="M54.9,16.4h-2.1v-3.5h5.4c0.5,0,0.8,0.1,1,0.3c0.2,0.2,0.3,0.5,0.3,0.8c0,0.3-0.1,0.5-0.4,0.7
	C59,15,58.7,15,58.3,15H55l0.7-0.7h1.6c0.1,0,0.2,0,0.2-0.1c0.1-0.1,0.1-0.1,0.1-0.2c0-0.1,0-0.2-0.1-0.2c-0.1-0.1-0.1-0.1-0.2-0.1
	h-2.4V16.4z"/>
<path fill="#231F20" d="M65.9,13.7h-2v2.7h-2.2v-2.7H60c0-0.6-0.5-0.8-0.5-0.8h6.1h0.9C66.4,12.9,65.9,13.2,65.9,13.7z"/>
<path fill="#231F20" d="M66.7,13.2c0.2-0.2,0.5-0.3,0.8-0.3h5.5l-0.8,0.8H69c-0.1,0-0.2,0-0.3,0.1c-0.1,0.1-0.1,0.1-0.1,0.2
	c0,0.1,0,0.2,0.1,0.2c0.1,0.1,0.1,0.1,0.3,0.1h3.6c0.3,0,0.6,0.1,0.8,0.3c0.2,0.2,0.3,0.4,0.3,0.7c0,0.3-0.1,0.6-0.3,0.7
	c-0.2,0.2-0.4,0.3-0.8,0.3h-9l0.1-0.8h7.6c0.1,0,0.2,0,0.2-0.1c0-0.1,0.1-0.1,0.1-0.2c0-0.1,0-0.1-0.1-0.2c0-0.1-0.1-0.1-0.2-0.1
	h-3.7c-0.1,0-0.3,0-0.4-0.1c-0.1,0-0.3-0.1-0.4-0.2c-0.1-0.1-0.2-0.2-0.2-0.3c-0.1-0.1-0.1-0.3-0.1-0.4
	C66.4,13.7,66.5,13.4,66.7,13.2z"/>
<path fill="#231F20" d="M23.8,16.4h-1.1h-4c-0.2,0-0.4,0-0.6-0.1c-0.2-0.1-0.4-0.2-0.5-0.4c-0.1-0.2-0.3-0.4-0.3-0.6
	c-0.1-0.2-0.1-0.5-0.1-0.7c0-0.2,0-0.5,0.1-0.7c0.1-0.2,0.2-0.4,0.3-0.5c0.1-0.2,0.3-0.3,0.5-0.4c0.2-0.1,0.4-0.1,0.6-0.1H23h0.8
	c-0.5,0-0.8,0.8-0.8,0.8h-3.2c-0.2,0-0.5,0.1-0.6,0.3c-0.2,0.2-0.3,0.4-0.3,0.7c0,0.3,0.1,0.5,0.3,0.7c0.2,0.2,0.4,0.3,0.6,0.3h3.3
	C23.2,16.2,23.8,16.4,23.8,16.4z"/>
<path fill="#231F20" d="M45.7,16.4h-1.1h-4c-0.2,0-0.4,0-0.6-0.1c-0.2-0.1-0.4-0.2-0.5-0.4c-0.1-0.2-0.3-0.4-0.3-0.6
	C39,15.1,39,14.9,39,14.6c0-0.2,0-0.5,0.1-0.7c0.1-0.2,0.2-0.4,0.3-0.5c0.1-0.2,0.3-0.3,0.5-0.4c0.2-0.1,0.4-0.1,0.6-0.1h4.2h0.8
	c-0.5,0-0.8,0.8-0.8,0.8h-3.2c-0.2,0-0.5,0.1-0.6,0.3c-0.2,0.2-0.3,0.4-0.3,0.7c0,0.3,0.1,0.5,0.3,0.7c0.2,0.2,0.4,0.3,0.6,0.3H45
	C45,16.2,45.7,16.4,45.7,16.4z"/>
<path fill="#231F20" d="M5.4,20.8c0,0,4.3-2.8,2.9-5.1l-2.9-4.4c0,0-1.5-2.2,2.9-5c0,0-9,5-7.2,7.8L5.4,20.8z"/>
<path fill="#231F20" d="M10.8,6.2c0,0-4.4,2.8-3,5l2.8,4.5c0,0,1.5,2.2-3,5c0,0,9.1-4.9,7.3-7.7L10.8,6.2z"/>
<g>
	<path fill="#231F20" d="M55.8,9.5h-2.1v2.8h-2.3V9.5h-1.9c0-0.6-0.5-0.8-0.5-0.8h6.3h0.9C56.3,8.7,56.3,8.7,55.8,9.5z"/>
	<path fill="#231F20" d="M17.8,9c0.2-0.2,0.5-0.3,0.8-0.3h5.7l-0.8,0.8h-3.5c-0.1,0-0.2,0-0.3,0.1c-0.1,0.1-0.1,0.1-0.1,0.2
		c0,0.1,0,0.2,0.1,0.2c0.1,0.1,0.1,0.1,0.3,0.1h3.7c0.3,0,0.6,0.1,0.8,0.3c0.2,0.2,0.3,0.5,0.3,0.8c0,0.3-0.1,0.6-0.3,0.8
		c-0.2,0.2-0.5,0.3-0.8,0.3h-6.3l0.7-0.8h4.2c0.1,0,0.2,0,0.2-0.1c0-0.1,0.1-0.1,0.1-0.2c0-0.1,0-0.1-0.1-0.2c0-0.1-0.1-0.1-0.2-0.1
		h-3.8c-0.2,0-0.3,0-0.4-0.1c-0.1,0-0.3-0.1-0.4-0.2c-0.1-0.1-0.2-0.2-0.2-0.3c-0.1-0.1-0.1-0.3-0.1-0.5C17.5,9.5,17.6,9.2,17.8,9z"
		/>
	<path fill="#231F20" d="M27.7,12.4h-2.2V8.7h5.8c0.5,0,0.9,0.1,1.1,0.3c0.2,0.2,0.3,0.5,0.3,0.8c0,0.3-0.1,0.5-0.4,0.7
		c-0.3,0.2-0.6,0.3-1.1,0.3h-3.4l0.7-0.7h1.7c0.1,0,0.2,0,0.3-0.1c0.1-0.1,0.1-0.1,0.1-0.2c0-0.1,0-0.2-0.1-0.2
		c-0.1-0.1-0.1-0.1-0.3-0.1h-2.5V12.4z"/>
	<path fill="#231F20" d="M39.2,12.4h-4.1c-0.3,0-0.5,0-0.7-0.1c-0.2-0.1-0.4-0.2-0.6-0.4c-0.2-0.2-0.3-0.4-0.4-0.6
		c-0.1-0.2-0.1-0.5-0.1-0.8c0-0.3,0-0.5,0.1-0.7c0.1-0.2,0.2-0.4,0.4-0.6C34,9.1,34.2,9,34.4,8.9c0.2-0.1,0.5-0.1,0.7-0.1h4.1
		c0.2,0,0.5,0,0.7,0.1c0.2,0.1,0.4,0.2,0.6,0.4c0.2,0.2,0.3,0.3,0.4,0.6C41,10,41,10.2,41,10.5c0,0.3,0,0.5-0.1,0.7
		c-0.1,0.2-0.2,0.4-0.4,0.6c-0.2,0.2-0.4,0.3-0.6,0.4C39.7,12.3,39.5,12.4,39.2,12.4z M36.6,11.6h1.3c0.3,0,0.5-0.1,0.7-0.3
		c0.2-0.2,0.3-0.4,0.3-0.7c0-0.1,0-0.3-0.1-0.4c-0.1-0.1-0.1-0.2-0.2-0.3c-0.1-0.1-0.2-0.2-0.3-0.2c-0.1,0-0.3-0.1-0.4-0.1h-1.3
		c-0.1,0-0.3,0-0.4,0.1c-0.1,0.1-0.2,0.1-0.3,0.2c-0.1,0.1-0.2,0.2-0.2,0.3c-0.1,0.1-0.1,0.3-0.1,0.4c0,0.3,0.1,0.5,0.3,0.7
		C36,11.5,36.3,11.6,36.6,11.6z"/>
	<path fill="#231F20" d="M46.9,12.4l-2.5-2.1H46c0.1,0,0.2,0,0.3-0.1c0.1-0.1,0.1-0.1,0.1-0.2c0-0.1,0-0.2-0.1-0.2
		c-0.1-0.1-0.2-0.1-0.3-0.1h-2.1v2.8h-2.3V8.7h6.2c0.2,0,0.3,0,0.4,0.1c0.1,0.1,0.3,0.1,0.4,0.2c0.1,0.1,0.2,0.2,0.2,0.4
		c0.1,0.1,0.1,0.3,0.1,0.4c0,0.2,0,0.3-0.1,0.4c-0.1,0.1-0.1,0.3-0.2,0.4c-0.1,0.1-0.2,0.2-0.4,0.2C48.1,11,47.9,11,47.8,11h-0.4
		l1.8,1.4H46.9z"/>
</g>
</svg>
