<?xml version="1.0" encoding="utf-8"?>
<!-- Generator: Adobe Illustrator 18.0.0, SVG Export Plug-In . SVG Version: 6.00 Build 0)  -->
<!DOCTYPE svg [
	<!ENTITY ns_extend "http://ns.adobe.com/Extensibility/1.0/">
	<!ENTITY ns_ai "http://ns.adobe.com/AdobeIllustrator/10.0/">
	<!ENTITY ns_graphs "http://ns.adobe.com/Graphs/1.0/">
	<!ENTITY ns_vars "http://ns.adobe.com/Variables/1.0/">
	<!ENTITY ns_imrep "http://ns.adobe.com/ImageReplacement/1.0/">
	<!ENTITY ns_sfw "http://ns.adobe.com/SaveForWeb/1.0/">
	<!ENTITY ns_custom "http://ns.adobe.com/GenericCustomNamespace/1.0/">
	<!ENTITY ns_adobe_xpath "http://ns.adobe.com/XPath/1.0/">
]>
<svg version="1.2" baseProfile="tiny" id="Layer_1" xmlns:x="&ns_extend;" xmlns:i="&ns_ai;" xmlns:graph="&ns_graphs;"
	 xmlns="http://www.w3.org/2000/svg" xmlns:xlink="http://www.w3.org/1999/xlink" x="0px" y="0px" viewBox="0 0 100 100"
	 xml:space="preserve">
<metadata>
	<sfw  xmlns="&ns_sfw;">
		<slices></slices>
		<sliceSourceBounds  height="98.2" width="95.5" bottomLeftOrigin="true" x="2.1" y="-99.1"></sliceSourceBounds>
	</sfw>
</metadata>
<path fill="#FFFFFF" d="M97.6,91.1l-2.7-17.8c0-2.7-1.8-4.5-3.6-5.4c0,0-13.4-6.2-22.3-11.6c0,0-0.9-0.9-3.6,0
	c-1.8,0.9-4.5,9.8-16.1,8.9c-11.6,0.9-13.4-8-16.1-8.9c-1.8-0.9-3.6,0-3.6,0C20.9,61.6,7.5,67.9,7.5,67.9c-0.9,0.9-2.7,3.6-2.7,5.4
	L2.1,91.1c0,1.8,0.9,4.5,3.6,4.5c6.2,1.8,24.1,3.6,43.7,3.6s38.4-2.7,43.7-3.6C96.7,95.5,97.6,93.8,97.6,91.1"/>
<path fill="#FFFFFF" d="M50.3,59.9c10.7,0,17.8-9.8,20.5-23.2c0-0.9,2.7-1.8,2.7-9.8c0-0.9,0-1.8-1.8-1.8C70.8,12.6,63.7,1,50.3,1
	S28.9,12.6,27.1,24.2c-0.9,0-1.8,1.8-1.8,1.8c0.9,8.9,3.6,9.8,3.6,10.7C32.4,50,38.7,59.9,50.3,59.9"/>
</svg>
