<?xml version="1.0" encoding="utf-8"?>
<!-- Generator: Adobe Illustrator 18.0.0, SVG Export Plug-In . SVG Version: 6.00 Build 0)  -->
<!DOCTYPE svg [
	<!ENTITY ns_extend "http://ns.adobe.com/Extensibility/1.0/">
	<!ENTITY ns_ai "http://ns.adobe.com/AdobeIllustrator/10.0/">
	<!ENTITY ns_graphs "http://ns.adobe.com/Graphs/1.0/">
	<!ENTITY ns_vars "http://ns.adobe.com/Variables/1.0/">
	<!ENTITY ns_imrep "http://ns.adobe.com/ImageReplacement/1.0/">
	<!ENTITY ns_sfw "http://ns.adobe.com/SaveForWeb/1.0/">
	<!ENTITY ns_custom "http://ns.adobe.com/GenericCustomNamespace/1.0/">
	<!ENTITY ns_adobe_xpath "http://ns.adobe.com/XPath/1.0/">
]>
<svg version="1.2" baseProfile="tiny" id="Layer_1" xmlns:x="&ns_extend;" xmlns:i="&ns_ai;" xmlns:graph="&ns_graphs;"
	 xmlns="http://www.w3.org/2000/svg" xmlns:xlink="http://www.w3.org/1999/xlink" x="0px" y="0px" viewBox="0 0 114 25"
	 xml:space="preserve">
<metadata>
	<sfw  xmlns="&ns_sfw;">
		<slices></slices>
		<sliceSourceBounds  height="13.8" width="110.5" bottomLeftOrigin="true" x="1.5" y="-19.8"></sliceSourceBounds>
	</sfw>
</metadata>
<g>
	<path d="M14,9.6c-0.6,0-1.2,0.1-1.8,0.2c-0.8,0.2-1.2,0.5-1.2,1v2.3c0,0.1-0.4,0.3-1.3,0.7c-0.4,0.2-0.7,0.3-1.1,0.5l-0.8,0.3
		c-0.1,0-0.7-0.3-1.8-0.8c-0.9-0.4-1.3-0.6-1.3-0.7v-2.3c0-0.4-0.4-0.8-1.2-1C3,9.7,2.4,9.6,1.8,9.6H1.5v4c0,0.1,0.5,0.4,1.4,0.8
		c0.6,0.3,1.6,0.7,2.8,1.2c0.4,0.2,1.1,0.5,2.1,0.8c0.4-0.1,1.1-0.4,2.1-0.8l1.5-0.6c0.7-0.3,1.5-0.7,2.4-1.1
		c0.3-0.1,0.4-0.2,0.4-0.3v-4L14,9.6L14,9.6z"/>
	<path d="M15.6,9.6v5.3c0,0.5,0.4,0.9,1.2,1.1c0.5,0.2,1.1,0.3,1.7,0.3h0.4V11c0-0.9-1-1.4-2.9-1.4H15.6L15.6,9.6z"/>
	<path d="M23,9.6c-1.3,0-2.2,0.3-2.7,0.8c-0.2,0.2-0.3,0.4-0.3,0.7v1.1c0,0.5,0.4,0.9,1.1,1.1c0.5,0.2,1.1,0.3,1.8,0.3h6.9v1.3h-9.8
		c0,0.5,0.4,0.9,1.2,1.1c0.6,0.2,1.2,0.3,1.8,0.3H30c2.1,0,3.1-0.5,3.1-1.4v-1.3c0-0.9-1-1.3-3.1-1.3h-6.7V11h9.7
		c0-0.9-1-1.4-3.1-1.4L23,9.6L23,9.6L23,9.6z"/>
	<path d="M34.4,9.6v5.3c0,0.5,0.4,0.9,1.1,1.1c0.5,0.2,1.1,0.3,1.7,0.3h0.4V11c0-0.9-1-1.4-2.9-1.4H34.4L34.4,9.6z"/>
	<path d="M72.2,9.6c-2,0-3,0.4-3,1.3v2.4c-0.3-0.2-0.7-0.4-1.2-0.7c0,0-0.1,0-0.1-0.1l-3.4-2.2c-0.7-0.5-1.8-0.7-3.1-0.7h-0.7v6.6
		H64v-3.8l1.3,0.8l3.4,2.2c0.7,0.5,1.7,0.7,3.1,0.7h0.7v-1.6l-0.8,0.5v-4.4l0.8,0.5V9.6L72.2,9.6L72.2,9.6z"/>
	<polygon fill="#BE1E2D" points="75.5,12.9 72.4,11.1 72.4,14.6 	"/>
	<path d="M39.1,12.9c1.8-3.5,6.3-6,10.4-5.5c3.2,0.4,6.2,2.7,7.6,5.5c-1.6,3.2-4.7,6.9-7.6,6.9c3.7,0,8.4-3,10.4-6.9
		C57.9,9.2,53.7,6,49.4,6C45.2,6,40.9,9.2,39.1,12.9"/>
	<path fill="#BE1E2D" d="M53.1,14.6c0,0.2-0.1,0.4-0.2,0.5c-0.4,0.4-1.1,0.6-2.2,0.6h-2.4v1h-0.8v-1H45c-0.5,0-0.9-0.1-1.4-0.2
		c-0.6-0.2-0.9-0.5-0.9-0.9v-1.3h-1v-0.6h1v-1.3c0-0.1,0.1-0.3,0.2-0.4c0.4-0.4,1.1-0.6,2.1-0.6h2.5v-1h0.8v1h2.4
		c1.6,0,2.4,0.4,2.4,1.1v1.2h1v0.6h-1V14.6z M50.5,13.3h-1v-0.6h1v-1.2h-2.2v0.8h-0.8v-0.8h-2.2v1.2h1v0.6h-1v1.3h2.3v-1h0.8v1h2.2
		L50.5,13.3L50.5,13.3z"/>
	<text transform="matrix(1 0 0 1 109.8256 16.1803)" font-family="'Helvetica-Bold'" font-size="1.4937">TM</text>
	<g>
		<path d="M94,14.9c0,1-1,1.4-3,1.4h-0.3v-2.7h-6.7v2.7h-0.4c-0.8,0-1.5-0.1-2.1-0.4c-0.6-0.3-0.9-0.6-0.9-1v-4c0-0.4,0.3-0.7,0.9-1
			c0.6-0.3,1.3-0.4,2.1-0.4h0.4v2.7h6.7V9.5h0.3c2,0,3,0.5,3,1.4L94,14.9L94,14.9z"/>
		<path d="M108.6,14.9c0,0.9-1,1.4-3,1.4H95.3v-4.1h3.4v2.7h6.7v-4h-6.8c-2.2,0-3.3-0.4-3.3-1.3V9.4h10.3c2,0,3,0.5,3,1.4
			L108.6,14.9C108.6,14.9,108.6,14.9,108.6,14.9z"/>
	</g>
</g>
</svg>
