<?xml version="1.0" encoding="utf-8"?>
<!-- Generator: Adobe Illustrator 19.2.1, SVG Export Plug-In . SVG Version: 6.00 Build 0)  -->
<svg version="1.2" baseProfile="tiny" id="Layer_1" xmlns="http://www.w3.org/2000/svg" xmlns:xlink="http://www.w3.org/1999/xlink"
	 x="0px" y="0px" viewBox="0 0 622 116.2" xml:space="preserve">
<path fill="#FFFFFF" d="M105.2,30.3c-5,0-9.9,0.7-14.8,2C83.5,34,80,36.8,80,40.6v19.1c0,0.5-3.8,2.4-11.3,5.9
	c-3.3,1.6-6.3,2.9-8.9,3.9L53,72.4c-0.7-0.2-5.7-2.4-15-6.6c-7.3-3.2-10.9-5.2-10.9-6.1V40.8c0-3.8-3.3-6.7-10-8.6
	c-4.6-1.3-9.5-2-14.6-2H0V64c0.1,0.7,4.2,3,12.1,6.8c5.4,2.6,13.1,6.1,23.2,10.4c3.7,1.5,9.6,3.9,17.7,7c3.3-1,9.3-3.3,18-7L83.4,76
	c5.9-2.5,12.7-5.7,20.4-9.5c2.4-1.2,3.6-2,3.7-2.5V30.3H105.2z"/>
<path fill="#FFFFFF" d="M118.4,30.3v44.3c0,4,3.2,7.1,9.7,9.3c4.5,1.5,9.3,2.3,14.5,2.3h3V42.1c0-7.9-8.2-11.8-24.6-11.8H118.4z"/>
<path fill="#FFFFFF" d="M181.2,30.3c-11.2,0-18.7,2.3-22.7,7c-1.4,1.7-2.1,3.6-2.1,5.9v9.3c0,4.3,3.2,7.5,9.6,9.6
	c4.5,1.4,9.5,2.2,15,2.2h58v10.5h-82.7c0,4.2,3.5,7.3,10.4,9.5c4.9,1.4,10,2.1,15.4,2.1H240c17.4,0,26.1-3.9,26.1-11.8V63.5
	c0-7.4-8.6-11.1-25.9-11.1h-56.1V42.1h82c0-7.9-8.6-11.8-25.7-11.8H181.2z"/>
<path fill="#FFFFFF" d="M276.9,30.3v44.3c0,4,3.2,7.1,9.6,9.3c4.5,1.5,9.3,2.3,14.5,2.3h3V42.1c0-7.9-8.2-11.8-24.6-11.8H276.9z"/>
<path fill="#FFFFFF" d="M594.3,30.3c-16.7,0-25,3.8-25,11.3v20.2c-2.1-1.4-5.5-3.5-10-6.2c-0.2-0.1-0.5-0.3-0.7-0.5l-28.9-18.7
	c-6.1-3.9-14.7-5.9-25.9-5.9h-5.5V86h27.1V54.4l10.9,7l28.9,18.8c6.1,3.9,14.6,5.9,25.7,5.9h5.5V72.8l-6.7,3.9V39.4l6.7,3.9v-13
	H594.3z"/>
<polygon fill="#BE1E2D" points="622,58 596.4,43.2 596.4,72.8 "/>
<path fill="#FFFFFF" d="M316,58.1c14.7-29.5,52.9-50.6,87.1-46.5c27.4,3.3,52.1,22.9,63.9,46.5c-13.5,27-39.4,58-63.9,58
	c30.7,0,70.8-25.4,87.1-58C474.6,26.9,438.9,0,403.1,0C367.4,0,331.6,26.9,316,58.1"/>
<path fill="#BE1E2D" d="M434,72.5c0,1.6-0.5,2.9-1.6,4c-3.1,3.3-9.2,5-18.2,5h-20v8.4h-6.5v-8.4h-21.3c-4.1,0-7.9-0.6-11.5-1.7
	c-5.1-1.7-7.7-4.2-7.7-7.4V61.8h-8.7v-5.3h8.7V46c0-1.3,0.5-2.6,1.6-3.7c3.1-3.6,9-5.4,17.6-5.4h21.3v-8.4h6.5v8.4h20
	c13.2,0,19.8,3.1,19.8,9.2v10.4h8.8v5.3H434V72.5z M412.4,61.8h-8.7v-5.3h8.7V46.3h-18.2v6.8h-6.5v-6.8h-18.9v10.2h8.7v5.3h-8.7
	v10.5h18.9v-8.2h6.5v8.2h18.2V61.8z"/>
</svg>
