<?xml version="1.0" encoding="utf-8"?>
<!-- Generator: Adobe Illustrator 18.0.0, SVG Export Plug-In . SVG Version: 6.00 Build 0)  -->
<!DOCTYPE svg [
	<!ENTITY ns_extend "http://ns.adobe.com/Extensibility/1.0/">
	<!ENTITY ns_ai "http://ns.adobe.com/AdobeIllustrator/10.0/">
	<!ENTITY ns_graphs "http://ns.adobe.com/Graphs/1.0/">
	<!ENTITY ns_vars "http://ns.adobe.com/Variables/1.0/">
	<!ENTITY ns_imrep "http://ns.adobe.com/ImageReplacement/1.0/">
	<!ENTITY ns_sfw "http://ns.adobe.com/SaveForWeb/1.0/">
	<!ENTITY ns_custom "http://ns.adobe.com/GenericCustomNamespace/1.0/">
	<!ENTITY ns_adobe_xpath "http://ns.adobe.com/XPath/1.0/">
]>
<svg version="1.2" baseProfile="tiny" id="Layer_1" xmlns:x="&ns_extend;" xmlns:i="&ns_ai;" xmlns:graph="&ns_graphs;"
	 xmlns="http://www.w3.org/2000/svg" xmlns:xlink="http://www.w3.org/1999/xlink" x="0px" y="0px" viewBox="0 0 114 25"
	 xml:space="preserve">
<metadata>
	<sfw  xmlns="&ns_sfw;">
		<slices></slices>
		<sliceSourceBounds  height="21.2" width="110.8" bottomLeftOrigin="true" x="2.7" y="-22.7"></sliceSourceBounds>
	</sfw>
</metadata>
<g>
	<path d="M21.4,6.9c-0.9,0-1.8,0.1-2.6,0.4c-1.2,0.3-1.9,0.8-1.9,1.5v3.4c0,0.1-0.7,0.4-2,1.1c-0.6,0.3-1.1,0.5-1.6,0.7l-1.2,0.5
		c-0.1,0-1-0.4-2.7-1.2c-1.3-0.6-1.9-0.9-1.9-1.1V8.8c0-0.7-0.6-1.2-1.8-1.5C4.9,7,4,6.9,3.1,6.9H2.7v6c0,0.1,0.7,0.5,2.2,1.2
		c1,0.5,2.3,1.1,4.1,1.9c0.6,0.3,1.7,0.7,3.2,1.2c0.6-0.2,1.7-0.6,3.2-1.2l2.2-0.9c1.1-0.4,2.3-1,3.6-1.7c0.4-0.2,0.6-0.4,0.7-0.4
		v-6L21.4,6.9L21.4,6.9L21.4,6.9z"/>
	<path d="M23.7,6.9v7.9c0,0.7,0.6,1.3,1.7,1.6c0.8,0.3,1.7,0.4,2.6,0.4h0.5V9c0-1.4-1.5-2.1-4.4-2.1H23.7L23.7,6.9z"/>
	<path d="M34.9,6.9c-2,0-3.3,0.4-4,1.2c-0.3,0.3-0.4,0.6-0.4,1.1v1.6c0,0.8,0.6,1.3,1.7,1.7c0.8,0.3,1.7,0.4,2.7,0.4h10.3v1.9H30.5
		c0,0.7,0.6,1.3,1.9,1.7c0.9,0.3,1.8,0.4,2.7,0.4h10.3c3.1,0,4.7-0.7,4.7-2.1v-2c0-1.3-1.5-2-4.6-2h-10V9h14.6
		c0-1.4-1.5-2.1-4.6-2.1L34.9,6.9L34.9,6.9L34.9,6.9z"/>
	<path d="M52,6.9v7.9c0,0.7,0.6,1.3,1.7,1.6c0.8,0.3,1.7,0.4,2.6,0.4h0.5V9c0-1.4-1.5-2.1-4.4-2.1H52L52,6.9z"/>
	<path d="M108.6,6.9c-3,0-4.4,0.7-4.4,2v3.6c-0.4-0.3-1-0.6-1.8-1.1c0,0-0.1-0.1-0.1-0.1L97,8c-1.1-0.7-2.6-1.1-4.6-1.1h-1v9.9h4.8
		v-5.6l1.9,1.2l5.2,3.3c1.1,0.7,2.6,1.1,4.6,1.1h1v-2.4l-1.2,0.7V8.5l1.2,0.7V6.9H108.6L108.6,6.9z"/>
	<polygon fill="#BE1E2D" points="113.5,11.8 108.9,9.2 108.9,14.5 	"/>
	<path d="M59,11.9c2.6-5.2,9.4-9,15.5-8.3c4.9,0.6,9.3,4.1,11.4,8.3c-2.4,4.8-7,10.3-11.4,10.3c5.5,0,12.6-4.5,15.5-10.3
		C87.2,6.3,80.9,1.5,74.5,1.5C68.1,1.5,61.7,6.3,59,11.9"/>
	<path fill="#BE1E2D" d="M80,14.4c0,0.3-0.1,0.5-0.3,0.7c-0.6,0.6-1.6,0.9-3.2,0.9h-3.6v1.5h-1.2V16h-3.8c-0.7,0-1.4-0.1-2.1-0.3
		c-0.9-0.3-1.4-0.7-1.4-1.3v-1.9H63v-0.9h1.5V9.7c0-0.2,0.1-0.5,0.3-0.6c0.6-0.6,1.6-1,3.1-1h3.8V6.6h1.2v1.5h3.6
		c2.4,0,3.5,0.6,3.5,1.6v1.9h1.6v0.9H80L80,14.4L80,14.4z M76.1,12.5h-1.5v-0.9h1.5V9.7h-3.2V11h-1.2V9.7h-3.4v1.8h1.5v0.9h-1.5v1.9
		h3.4v-1.5h1.2v1.5h3.2V12.5z"/>
	<g>
		<path d="M110.7,15.7v0.2h-0.3v0.9h-0.2v-0.9h-0.3v-0.2H110.7z"/>
		<path d="M111.5,15.7h0.3v1.1h-0.2V16c0,0,0,0,0-0.1c0,0,0-0.1,0-0.1l-0.2,0.9h-0.2l-0.2-0.9c0,0,0,0,0,0.1c0,0,0,0.1,0,0.1v0.7
			h-0.2v-1.1h0.3l0.2,0.8L111.5,15.7z"/>
	</g>
	<path d="M90.1,19.9c-0.8,0-1.2,0.2-1.2,0.6v1.7h-1.3V21c0-0.3-0.3-0.5-0.8-0.6c-0.1,0-0.3,0-0.5,0h-0.2v1.7H85v-1.6
		c0-0.3-0.3-0.5-0.8-0.6c-0.1,0-0.3,0-0.5,0h-0.1v2.2c0,0.4,0.4,0.6,1.2,0.6h4.2c0.8,0,1.2-0.2,1.2-0.6v-2.2L90.1,19.9L90.1,19.9z"
		/>
	<path d="M95,19.9V21h-2.8v-1.1h-0.1c-0.5,0-0.9,0.1-1.1,0.3c-0.1,0.1-0.1,0.1-0.1,0.2v1.6c0,0.2,0.2,0.4,0.5,0.5
		c0.2,0.1,0.5,0.1,0.7,0.1h0.1v-1.1H95v1.1h0.1c0.3,0,0.5,0,0.8-0.1c0.3-0.1,0.5-0.3,0.5-0.5v-1.6c0-0.4-0.4-0.6-1.2-0.6L95,19.9
		L95,19.9z"/>
	<path d="M98.1,19.9c-0.5,0-0.9,0.1-1.1,0.4c-0.1,0.1-0.1,0.1-0.1,0.2v1.6c0,0.2,0.2,0.4,0.5,0.5c0.2,0.1,0.5,0.1,0.7,0.1h3
		c0.8,0,1.2-0.2,1.2-0.6h-4.1v-0.5h2.6c1,0,1.5-0.2,1.5-0.6h-4.1v-0.5h4.1c0-0.4-0.4-0.6-1.2-0.6L98.1,19.9L98.1,19.9z"/>
	<path d="M104.2,19.9c-0.5,0-0.9,0.1-1.1,0.4c-0.1,0.1-0.1,0.1-0.1,0.2v1.6c0,0.2,0.2,0.4,0.5,0.5c0.2,0.1,0.5,0.1,0.7,0.1h3
		c0.8,0,1.2-0.2,1.2-0.6h-4.1v-0.5h2.6c1,0,1.5-0.2,1.5-0.6h-4.1v-0.5h4.1c0-0.4-0.4-0.6-1.2-0.6L104.2,19.9L104.2,19.9z"/>
	<path d="M109,19.9v2.2c0,0.2,0.2,0.4,0.5,0.5c0.2,0.1,0.5,0.1,0.8,0.1h1.7c0.8,0,1.2-0.2,1.3-0.6h-2.9v-1.6c0-0.4-0.4-0.6-1.2-0.6
		L109,19.9L109,19.9z"/>
</g>
</svg>
