<?xml version="1.0" encoding="utf-8"?>
<!-- Generator: Adobe Illustrator 18.0.0, SVG Export Plug-In . SVG Version: 6.00 Build 0)  -->
<!DOCTYPE svg [
	<!ENTITY ns_extend "http://ns.adobe.com/Extensibility/1.0/">
	<!ENTITY ns_ai "http://ns.adobe.com/AdobeIllustrator/10.0/">
	<!ENTITY ns_graphs "http://ns.adobe.com/Graphs/1.0/">
	<!ENTITY ns_vars "http://ns.adobe.com/Variables/1.0/">
	<!ENTITY ns_imrep "http://ns.adobe.com/ImageReplacement/1.0/">
	<!ENTITY ns_sfw "http://ns.adobe.com/SaveForWeb/1.0/">
	<!ENTITY ns_custom "http://ns.adobe.com/GenericCustomNamespace/1.0/">
	<!ENTITY ns_adobe_xpath "http://ns.adobe.com/XPath/1.0/">
]>
<svg version="1.2" baseProfile="tiny" id="Layer_1" xmlns:x="&ns_extend;" xmlns:i="&ns_ai;" xmlns:graph="&ns_graphs;"
	 xmlns="http://www.w3.org/2000/svg" xmlns:xlink="http://www.w3.org/1999/xlink" x="0px" y="0px" viewBox="0 0 100 100"
	 xml:space="preserve">
<metadata>
	<sfw  xmlns="&ns_sfw;">
		<slices></slices>
		<sliceSourceBounds  height="98.2" width="98.2" bottomLeftOrigin="true" x="0.8" y="-98.9"></sliceSourceBounds>
	</sfw>
</metadata>
<path fill="#FFFFFF" d="M72.5,57.1c-0.4,0.7-0.7,1-1.4,0.7c-0.4,0-0.7-0.4-1-0.4l-0.4-0.4c0-1.7,0-3.1,0-4.9l0,0c0-1.7,0-3.1,0-4.9
	V47c0.4-0.4,0.7-0.7,1.4-0.7c0.4,0,0.7,0.4,1,0.7c0,0.4,0,0.7,0,1c0,2.4,0,5.2,0,7.7C72.5,56.4,72.5,56.8,72.5,57.1 M75.3,45.3
	c-0.7-1.4-1.7-1.7-2.8-1.4c-0.7,0.4-1.4,0.7-1.7,1c0,0-0.4,0.4-0.7,0.7v-7h-2.8v22l0,0c1,0,1.7,0,2.8,0c0,0,0,0,0-0.4s0-0.7,0-1l0,0
	c0.4,0.4,0.7,0.7,1,0.7c0.7,0.4,1.4,1,2.1,1c1.4,0,2.4-0.7,2.4-2.1c0.4-1,0.4-1.7,0.4-2.8c0-2.1,0-4.5,0-6.6c0-0.7,0-1.4,0-2.1
	C75.6,46.7,75.6,46,75.3,45.3"/>
<path fill="#FFFFFF" d="M61.4,44.6c0,3.8,0,7.7,0,11.5c0,0.4,0,1-0.4,1.4c-0.4,0.4-0.7,0.7-1,0.7c-0.7,0.4-1,0-1-0.7l0,0V45v-0.4
	h-0.4h-2.4c-0.4,0-0.4,0-0.4,0.4c0,4.2,0,8,0,12.2c0,0.4,0,0.7,0,1.4c0,0.7,0,1,0.4,1.4c0.4,0.7,0.7,1,1.4,1.4c0.7,0,1,0,1.7-0.4
	c0.7-0.4,1.4-1,1.7-1.4l0,0l0,0v1.7h3.1V44.9L61.4,44.6L61.4,44.6z"/>
<path fill="#FFFFFF" d="M56.5,38.7C56.1,38.7,56.1,38.7,56.5,38.7c-3.5,0-7,0-10.1,0c-0.4,0-0.4,0-0.4,0.4c0,1,0,1.7,0,2.8
	c0,0,0,0,0,0.4h3.5V61h0.4c1,0,1.7,0,2.8,0c0.4,0,0.4,0,0.4-0.4c0-5.9,0-12.2,0-18.1v-0.4h3.5V38.7z"/>
<path fill="#FFFFFF" d="M25.5,50.5c0-0.7,0-1.4,0-2.1c0-0.4,0-0.4,0-0.7c0-0.7-0.7-1-1.4-1s-1,0.4-1.4,1v0.4c0,0.4,0,1,0,1.4
	c0,2.1,0,4.2,0,5.9v0.4c0,0.4,0,1,0.4,1.4c0.4,0.4,0.7,0.7,1,0.7s1-0.4,1-0.7c0.4-0.4,0.4-0.7,0.4-1c0-1.4,0-2.4,0-3.8l0,0
	C25.5,51.9,25.5,51.2,25.5,50.5"/>
<path fill="#FFFFFF" d="M91,53.3c0,0.7,0,1.7,0,2.4c0,1,0,1.7-0.4,2.8c0,1-0.4,2.1-0.4,3.1c-0.4,1-0.7,1.7-1,2.8
	c-1,1.4-2.8,2.1-4.5,2.4c-1,0-2.1,0.4-3.1,0.4c-2.1,0-4.5,0.4-6.6,0.4c-1.4,0-2.8,0-4.2,0c-2.4,0-4.9,0-7.3,0c-1.4,0-2.8,0-4.2,0
	c-1.7,0-3.5,0-4.9,0s-2.8,0-4.5-0.4c-1,0-1.7-0.4-2.8-0.7c-1.4-0.4-2.4-1-3.1-2.4c-0.7-1.4-1-2.4-1.4-3.8c0-1-0.4-1.7-0.4-2.8
	c0-1,0-2.1-0.4-3.1c0-1.7,0-3.1,0-4.9c0-1,0-1.7,0-2.8c0-1.7,0.4-3.1,0.4-4.9c0-1,0.4-2.4,0.7-3.5c0.7-2.4,2.4-3.8,4.5-4.2
	c1-0.4,1.7-0.4,2.8-0.4c1.7,0,3.5-0.4,5.2-0.4c2.4,0,4.9,0,7,0c0.4,0,0.4,0,0.7,0h5.6c0,0,0,0,0.4,0c2.4,0,4.9,0,7.3,0
	c1,0,1.7,0,2.8,0s2.4,0,3.5,0.4c0.7,0,1.7,0,2.4,0.4c1.7,0.4,2.8,1.4,3.8,2.8c0.4,0.7,0.7,1.7,1,2.8c0.4,1.4,0.4,2.8,0.7,4.2
	c0,1,0,2.1,0.4,3.1v0.4L91,53.3C91,53,91,53,91,53.3 M39.4,60.6h-3.1v-1.7c-0.4,0.4-0.4,0.4-0.7,0.7c-0.7,0.4-1,1-1.7,1
	c-1,0.4-1.7,0.4-2.4-0.4c-0.4-0.4-0.7-1-0.7-1.4c0-0.7,0-1,0-1.7c0-4.2,0-8.4,0-12.9v-0.4h3.1v0.4v12.9l0,0c0,1,0.7,1,1,0.7
	c0.4-0.4,0.7-0.7,1-1c0.4,0,0.4-0.4,0.4-0.7c0-3.8,0-8,0-11.8v-0.4h3.1L39.4,60.6L39.4,60.6z M28.6,56.1c0,0.7,0,1.7-0.4,2.4
	c-0.7,1.4-1.7,2.1-3.1,2.4c-1.7,0.4-3.5-0.7-4.5-2.1c-0.4-0.7-0.7-1.7-0.7-2.4c0-1.4,0-2.4,0-3.8s0-2.4,0-3.8c0-0.7,0-1.4,0.4-1.7
	c0.7-1.7,1.7-2.8,3.5-2.8c0.7,0,1.7,0,2.4,0.4c1,0.7,1.7,1.7,2.1,2.8c0,0.7,0.4,1.4,0.4,1.7C28.6,51.6,28.6,53.7,28.6,56.1
	 M16.1,51.9c0,2.8,0,5.6,0,8.4v0.4h-3.1v-0.4c0-2.8,0-5.6,0-8.4v-0.4c-1.4-4.2-2.8-8.4-3.8-12.5c0,0,0,0,0-0.4l0,0h3.5
	c0.7,2.8,1.4,5.6,2.4,8.7l0,0c0-0.4,0-0.4,0-0.7c0.7-2.4,1.4-5.2,2.1-7.7c0,0,0-0.4,0.4-0.4c1,0,2.1,0,3.1,0c0,0,0,0,0,0.4
	c-1.4,4.2-2.8,8.4-3.8,12.5C16.4,51.6,16.1,51.6,16.1,51.9 M49.9,0.7C22.7,0.7,0.8,22.7,0.8,49.8s21.9,49.1,49.1,49.1S99,77,99,49.8
	S77,0.7,49.9,0.7"/>
<path fill="#FFFFFF" d="M83.6,50.5h-2.8l0,0c0-0.7,0-1.7,0-2.4v-0.4c0-0.4,0.4-0.7,0.7-0.7c0.4,0,0.4,0,0.7,0c0.7,0,1,0.4,1,1
	C83.6,48.4,83.6,49.5,83.6,50.5 M86.4,47.4c-0.4-1.4-0.7-2.1-1.7-2.8s-2.1-0.7-3.1-0.7c-1.7,0.4-2.8,1-3.5,2.8
	c-0.4,0.7-0.4,1.7-0.4,2.4c0,2.1,0,4.2,0,6.6c0,0.7,0,1,0.4,1.7c0.4,1.4,1,2.4,2.1,3.1c0.7,0.4,1.7,0.7,2.8,0.4c1.7,0,2.8-1,3.5-2.4
	c0.4-0.7,0.4-1.4,0.4-2.4c0-0.4,0-0.7,0-1h-3.1v0.4c0,0.7,0,1,0,1.7c0,0.7-0.4,1-1,1.4c-0.7,0-1.4-0.4-1.4-1c0-0.4,0-0.7,0-1
	c0-1,0-2.1,0-2.8c0,0,0,0,0-0.4h5.9c0,0,0,0,0-0.4c0-1,0-2.1,0-3.1C86.8,48.8,86.8,48.1,86.4,47.4"/>
</svg>
