<?xml version="1.0" encoding="utf-8"?>
<!-- Generator: Adobe Illustrator 18.0.0, SVG Export Plug-In . SVG Version: 6.00 Build 0)  -->
<!DOCTYPE svg [
	<!ENTITY ns_extend "http://ns.adobe.com/Extensibility/1.0/">
	<!ENTITY ns_ai "http://ns.adobe.com/AdobeIllustrator/10.0/">
	<!ENTITY ns_graphs "http://ns.adobe.com/Graphs/1.0/">
	<!ENTITY ns_vars "http://ns.adobe.com/Variables/1.0/">
	<!ENTITY ns_imrep "http://ns.adobe.com/ImageReplacement/1.0/">
	<!ENTITY ns_sfw "http://ns.adobe.com/SaveForWeb/1.0/">
	<!ENTITY ns_custom "http://ns.adobe.com/GenericCustomNamespace/1.0/">
	<!ENTITY ns_adobe_xpath "http://ns.adobe.com/XPath/1.0/">
]>
<svg version="1.2" baseProfile="tiny" id="Layer_1" xmlns:x="&ns_extend;" xmlns:i="&ns_ai;" xmlns:graph="&ns_graphs;"
	 xmlns="http://www.w3.org/2000/svg" xmlns:xlink="http://www.w3.org/1999/xlink" x="0px" y="0px" viewBox="0 0 100 100"
	 xml:space="preserve">
<metadata>
	<sfw  xmlns="&ns_sfw;">
		<slices></slices>
		<sliceSourceBounds  height="93.6" width="93.6" bottomLeftOrigin="true" x="2.8" y="-96.9"></sliceSourceBounds>
	</sfw>
</metadata>
<g>
	<path fill="#BF212F" d="M49.6,96.9c-25.8,0-46.8-21-46.8-46.8c0-25.8,21-46.8,46.8-46.8s46.8,21,46.8,46.8
		C96.4,75.9,75.4,96.9,49.6,96.9z M49.6,7.3C26,7.3,6.8,26.5,6.8,50.1S26,92.9,49.6,92.9c23.6,0,42.8-19.2,42.8-42.8
		S73.2,7.3,49.6,7.3z"/>
	<path fill="#BF2230" d="M61.6,31.3H38.5c-2.2,0-4.1,1.8-4.1,4.1v33.7c0,2.2,1.8,4.1,4.1,4.1h23.1c2.2,0,4.1-1.8,4.1-4.1V35.4
		C65.7,33.2,63.9,31.3,61.6,31.3z M62.8,69.1c0,0.6-0.5,1.2-1.2,1.2H38.5c-0.6,0-1.2-0.5-1.2-1.2V35.4c0-0.6,0.5-1.2,1.2-1.2h23.1
		c0.6,0,1.2,0.5,1.2,1.2V69.1z"/>
	<path fill="#BF2230" d="M57.8,66.2H42.3c-0.8,0-1.5-0.7-1.5-1.5c0-0.8,0.7-1.5,1.5-1.5h15.5c0.8,0,1.5,0.7,1.5,1.5
		C59.3,65.5,58.6,66.2,57.8,66.2z M57.8,60H42.3c-0.8,0-1.5-0.7-1.5-1.5s0.7-1.5,1.5-1.5h15.5c0.8,0,1.5,0.7,1.5,1.5
		S58.6,60,57.8,60z M57.8,53.7H42.3c-0.8,0-1.5-0.7-1.5-1.5c0-0.8,0.7-1.5,1.5-1.5h15.5c0.8,0,1.5,0.7,1.5,1.5
		C59.3,53.1,58.6,53.7,57.8,53.7z M57.8,47.5H42.3c-0.8,0-1.5-0.7-1.5-1.5c0-0.8,0.7-1.5,1.5-1.5h15.5c0.8,0,1.5,0.7,1.5,1.5
		C59.3,46.9,58.6,47.5,57.8,47.5z M57.8,41.3H42.3c-0.8,0-1.5-0.7-1.5-1.5c0-0.8,0.7-1.5,1.5-1.5h15.5c0.8,0,1.5,0.7,1.5,1.5
		C59.3,40.6,58.6,41.3,57.8,41.3z"/>
</g>
</svg>
