<?xml version="1.0" encoding="utf-8"?>
<!-- Generator: Adobe Illustrator 18.0.0, SVG Export Plug-In . SVG Version: 6.00 Build 0)  -->
<!DOCTYPE svg [
	<!ENTITY ns_extend "http://ns.adobe.com/Extensibility/1.0/">
	<!ENTITY ns_ai "http://ns.adobe.com/AdobeIllustrator/10.0/">
	<!ENTITY ns_graphs "http://ns.adobe.com/Graphs/1.0/">
	<!ENTITY ns_vars "http://ns.adobe.com/Variables/1.0/">
	<!ENTITY ns_imrep "http://ns.adobe.com/ImageReplacement/1.0/">
	<!ENTITY ns_sfw "http://ns.adobe.com/SaveForWeb/1.0/">
	<!ENTITY ns_custom "http://ns.adobe.com/GenericCustomNamespace/1.0/">
	<!ENTITY ns_adobe_xpath "http://ns.adobe.com/XPath/1.0/">
]>
<svg version="1.2" baseProfile="tiny" id="Layer_1" xmlns:x="&ns_extend;" xmlns:i="&ns_ai;" xmlns:graph="&ns_graphs;"
	 xmlns="http://www.w3.org/2000/svg" xmlns:xlink="http://www.w3.org/1999/xlink" x="0px" y="0px" viewBox="0 0 100 100"
	 xml:space="preserve">
<metadata>
	<sfw  xmlns="&ns_sfw;">
		<slices></slices>
		<sliceSourceBounds  height="93.6" width="93.6" bottomLeftOrigin="true" x="2.6" y="-97.1"></sliceSourceBounds>
	</sfw>
</metadata>
<g>
	<path fill="#BF212F" d="M49.4,97.1c-25.8,0-46.8-21-46.8-46.8s21-46.8,46.8-46.8c25.8,0,46.8,21,46.8,46.8S75.2,97.1,49.4,97.1z
		 M49.4,7.6C25.8,7.6,6.6,26.8,6.6,50.3c0,23.6,19.2,42.8,42.8,42.8s42.8-19.2,42.8-42.8C92.2,26.8,73,7.6,49.4,7.6z"/>
	<g>
		<path fill="#BF212F" d="M62.4,49.4c-0.5-0.8-1.3-1.2-2.2-1.2c-0.2,0-0.5,0-0.7,0.1l-6.2,5l0-27.3c0-1.4-1.1-2.5-2.5-2.5
			c-1.4,0-2.5,1.1-2.5,2.5l0,27.3l-6.2-5c-0.2-0.1-0.5-0.1-0.7-0.1c0,0,0,0,0,0c-1.4,0-2.5,1.1-2.5,2.5c0,0.8,0.4,1.5,1,2l9.3,9.8
			c0,0,0.1,0.1,0.1,0.1c0,0,0.1,0.1,0.1,0.1c0.1,0,0.1,0.1,0.2,0.1c0.1,0,0.1,0.1,0.2,0.1c0.1,0,0.1,0.1,0.2,0.1c0,0,0.1,0,0.1,0.1
			c0,0,0,0,0,0c0.1,0,0.2,0.1,0.3,0.1c0,0,0.1,0,0.1,0c0.1,0,0.2,0,0.3,0.1c0,0,0,0,0,0c0.1,0,0.2,0,0.4,0c0,0,0,0,0,0
			c0.1,0,0.2,0,0.3,0c0,0,0,0,0,0c0.1,0,0.2,0,0.3-0.1c0,0,0.1,0,0.1,0c0,0,0,0,0,0c0.1,0,0.1-0.1,0.2-0.1c0,0,0.1,0,0.1-0.1
			c0.1,0,0.1-0.1,0.2-0.1c0,0,0.1-0.1,0.1-0.1c0.1,0,0.1-0.1,0.2-0.2c0,0,0.1-0.1,0.1-0.1l9.5-10C62.9,51.6,63,50.4,62.4,49.4z"/>
		<path fill="#FFFFFF" d="M50.7,63.8c-0.1,0-0.2,0-0.2,0c-0.2,0-0.3,0-0.4-0.1l-0.1,0c-0.1,0-0.2-0.1-0.3-0.1c-0.1,0-0.1,0-0.2-0.1
			c-0.1-0.1-0.2-0.1-0.3-0.1c-0.1,0-0.1-0.1-0.1-0.1l0.2-0.5L49,63.2c0,0-0.1-0.1-0.1-0.1c0,0-0.1-0.1-0.1-0.1l-0.2-0.2l-9.3-9.8
			c-0.7-0.5-1.1-1.4-1.1-2.3c0-1.7,1.4-3,3-3c0.3,0,0.6,0,0.9,0.1l0.2,0.1l5.4,4.4l0-26.3c0-1.7,1.4-3,3-3s3,1.4,3,3l0,26.3l5.6-4.5
			c1.3-0.4,2.8,0.1,3.5,1.3c0.7,1.2,0.6,2.7-0.4,3.7l-9.6,10.1c-0.1,0.1-0.2,0.2-0.2,0.2l-0.1,0.1c-0.1,0.1-0.2,0.1-0.3,0.2
			l-0.1,0.1c-0.1,0.1-0.2,0.1-0.3,0.1l-0.1,0c-0.1,0-0.2,0.1-0.3,0.1c-0.2,0-0.3,0.1-0.4,0.1C50.8,63.8,50.8,63.8,50.7,63.8z
			 M49.7,62.5c0,0,0.1,0,0.1,0.1l0.1,0.1c0.1,0,0.2,0.1,0.2,0.1l0,0.5l0.1-0.5c0.1,0,0.2,0,0.3,0c0.1,0,0.1,0,0.2,0l0.1,0
			c0.1,0,0.2,0,0.3,0c0.1,0,0.2,0,0.2-0.1l0.1,0c0,0,0,0,0.1,0l0.1-0.1c0.1,0,0.1-0.1,0.2-0.1l0.4,0.3L52,62.4c0,0,0.1-0.1,0.1-0.1
			l0.1-0.1l9.5-10c0.6-0.7,0.7-1.7,0.3-2.5c-0.5-0.8-1.4-1.1-2.2-0.9l-7,5.6l0-28.4c0-1.1-0.9-2-2-2c-1.1,0-2,0.9-2,2l0,28.4
			l-6.9-5.6c-0.2,0-0.3-0.1-0.5-0.1c-1.2,0-2.1,0.9-2.1,2c0,0.6,0.3,1.2,0.8,1.6l9.3,9.8L49,62.6l0.3-0.4l0.3,0.2L49.4,63L49.7,62.5
			z"/>
	</g>
	<path fill="#BF212F" d="M71.3,67.1c0,0.8-0.7,1.5-1.5,1.5H31.6c-0.8,0-1.5-0.7-1.5-1.5c0-0.8,0.7-1.5,1.5-1.5h38.3
		C70.6,65.6,71.3,66.3,71.3,67.1z"/>
</g>
</svg>
