<?xml version="1.0" encoding="utf-8"?>
<!-- Generator: Adobe Illustrator 18.0.0, SVG Export Plug-In . SVG Version: 6.00 Build 0)  -->
<!DOCTYPE svg [
	<!ENTITY ns_extend "http://ns.adobe.com/Extensibility/1.0/">
	<!ENTITY ns_ai "http://ns.adobe.com/AdobeIllustrator/10.0/">
	<!ENTITY ns_graphs "http://ns.adobe.com/Graphs/1.0/">
	<!ENTITY ns_vars "http://ns.adobe.com/Variables/1.0/">
	<!ENTITY ns_imrep "http://ns.adobe.com/ImageReplacement/1.0/">
	<!ENTITY ns_sfw "http://ns.adobe.com/SaveForWeb/1.0/">
	<!ENTITY ns_custom "http://ns.adobe.com/GenericCustomNamespace/1.0/">
	<!ENTITY ns_adobe_xpath "http://ns.adobe.com/XPath/1.0/">
]>
<svg version="1.2" baseProfile="tiny" id="Layer_1" xmlns:x="&ns_extend;" xmlns:i="&ns_ai;" xmlns:graph="&ns_graphs;"
	 xmlns="http://www.w3.org/2000/svg" xmlns:xlink="http://www.w3.org/1999/xlink" x="0px" y="0px" viewBox="0 0 100 100"
	 xml:space="preserve">
<metadata>
	<sfw  xmlns="&ns_sfw;">
		<slices></slices>
		<sliceSourceBounds  height="93.6" width="93.6" bottomLeftOrigin="true" x="3.2" y="-96.8"></sliceSourceBounds>
	</sfw>
</metadata>
<g>
	<path fill="#BF212F" d="M50,96.8c-25.8,0-46.8-21-46.8-46.8c0-25.8,21-46.8,46.8-46.8c25.8,0,46.8,21,46.8,46.8
		C96.8,75.8,75.8,96.8,50,96.8z M50,7.2C26.4,7.2,7.2,26.4,7.2,50S26.4,92.8,50,92.8S92.8,73.6,92.8,50S73.6,7.2,50,7.2z"/>
	<path fill="#BF212F" d="M54.1,70.1h-9.3c-2.3,0-4.2-1.9-4.2-4.2V65c-0.1-0.1-0.2-0.1-0.3-0.2l-0.8,0.5c-0.6,0.4-1.4,0.6-2.1,0.6
		c-1.5,0-2.9-0.8-3.6-2.1l-4.6-8c-0.6-1-0.7-2.1-0.4-3.2c0.3-1.1,1-2,2-2.6l0.8-0.5c0-0.1,0-0.1,0-0.2c0-0.1,0-0.1,0-0.2l-0.8-0.5
		c-1-0.6-1.7-1.5-2-2.6c-0.3-1.1-0.1-2.2,0.4-3.2l4.6-8c0.7-1.3,2.1-2.1,3.6-2.1c0.7,0,1.5,0.2,2.1,0.6l0.8,0.5
		c0.1-0.1,0.2-0.1,0.3-0.2v-0.9c0-2.3,1.9-4.2,4.2-4.2h9.3c2.3,0,4.2,1.9,4.2,4.2v0.9c0.1,0.1,0.2,0.1,0.3,0.2l0.8-0.5
		c0.6-0.4,1.4-0.6,2.1-0.6c1.5,0,2.9,0.8,3.6,2.1l4.6,8c0.6,1,0.7,2.1,0.4,3.2c-0.3,1.1-1,2-2,2.6l-0.8,0.5c0,0.1,0,0.1,0,0.2
		c0,0.1,0,0.1,0,0.2l0.8,0.5c2,1.2,2.7,3.7,1.5,5.7l-4.6,8c-0.7,1.3-2.1,2.1-3.6,2.1c-0.7,0-1.5-0.2-2.1-0.6l-0.8-0.5
		c-0.1,0.1-0.2,0.1-0.3,0.2v0.9C58.3,68.2,56.4,70.1,54.1,70.1z M40.4,61.6c0.3,0,0.6,0.1,0.8,0.2c0.5,0.3,1,0.6,1.6,0.9
		c0.5,0.2,0.8,0.8,0.8,1.3v1.8c0,0.7,0.6,1.3,1.3,1.3h9.3c0.7,0,1.3-0.6,1.3-1.3v-1.8c0-0.6,0.3-1.1,0.8-1.3
		c0.5-0.3,1.1-0.6,1.6-0.9c0.5-0.3,1.1-0.3,1.5,0l1.6,0.9c0.6,0.3,1.4,0.1,1.8-0.5l4.6-8c0.4-0.6,0.1-1.4-0.5-1.7l-1.6-0.9
		c-0.5-0.3-0.8-0.8-0.7-1.4c0-0.3,0-0.6,0-0.9c0-0.3,0-0.6,0-0.9c0-0.6,0.2-1.1,0.7-1.4l1.6-0.9c0.3-0.2,0.5-0.4,0.6-0.8
		c0.1-0.3,0-0.7-0.1-1l-4.6-8c-0.3-0.6-1.2-0.8-1.7-0.5l-1.6,0.9c-0.5,0.3-1.1,0.3-1.5,0c-0.5-0.3-1-0.6-1.6-0.9
		c-0.5-0.2-0.8-0.8-0.8-1.3v-1.8c0-0.7-0.6-1.3-1.3-1.3h-9.3c-0.7,0-1.3,0.6-1.3,1.3v1.8c0,0.6-0.3,1.1-0.8,1.3
		c-0.5,0.3-1.1,0.6-1.6,0.9c-0.5,0.3-1.1,0.3-1.5,0L38.1,36c-0.6-0.3-1.4-0.1-1.8,0.5l-4.6,8c-0.2,0.3-0.2,0.6-0.1,1
		c0.1,0.3,0.3,0.6,0.6,0.8l1.6,0.9c0.5,0.3,0.8,0.8,0.7,1.4c0,0.3,0,0.6,0,0.9c0,0.3,0,0.6,0,0.9c0,0.6-0.2,1.1-0.7,1.4l-1.6,0.9
		c-0.3,0.2-0.5,0.4-0.6,0.8c-0.1,0.3,0,0.7,0.1,1l4.6,8c0.3,0.6,1.2,0.8,1.7,0.5l1.6-0.9C39.9,61.7,40.1,61.6,40.4,61.6z M49.5,58.6
		c-5.1,0-9.3-4.1-9.3-9.2s4.2-9.3,9.3-9.3c5.1,0,9.3,4.2,9.3,9.3S54.6,58.6,49.5,58.6z M49.5,43c-3.5,0-6.3,2.8-6.3,6.3
		c0,3.5,2.8,6.3,6.3,6.3c3.5,0,6.3-2.8,6.3-6.3C55.8,45.9,53,43,49.5,43z"/>
</g>
</svg>
