<?xml version="1.0" encoding="utf-8"?>
<!-- Generator: Adobe Illustrator 18.0.0, SVG Export Plug-In . SVG Version: 6.00 Build 0)  -->
<!DOCTYPE svg [
	<!ENTITY ns_extend "http://ns.adobe.com/Extensibility/1.0/">
	<!ENTITY ns_ai "http://ns.adobe.com/AdobeIllustrator/10.0/">
	<!ENTITY ns_graphs "http://ns.adobe.com/Graphs/1.0/">
	<!ENTITY ns_vars "http://ns.adobe.com/Variables/1.0/">
	<!ENTITY ns_imrep "http://ns.adobe.com/ImageReplacement/1.0/">
	<!ENTITY ns_sfw "http://ns.adobe.com/SaveForWeb/1.0/">
	<!ENTITY ns_custom "http://ns.adobe.com/GenericCustomNamespace/1.0/">
	<!ENTITY ns_adobe_xpath "http://ns.adobe.com/XPath/1.0/">
]>
<svg version="1.2" baseProfile="tiny" id="Layer_1" xmlns:x="&ns_extend;" xmlns:i="&ns_ai;" xmlns:graph="&ns_graphs;"
	 xmlns="http://www.w3.org/2000/svg" xmlns:xlink="http://www.w3.org/1999/xlink" x="0px" y="0px" viewBox="0 0 100 100"
	 xml:space="preserve">
<metadata>
	<sfw  xmlns="&ns_sfw;">
		<slices></slices>
		<sliceSourceBounds  height="93.6" width="93.6" bottomLeftOrigin="true" x="2.8" y="-97.1"></sliceSourceBounds>
	</sfw>
</metadata>
<g>
	<path fill="#BF212F" d="M49.6,97.1c-25.8,0-46.8-21-46.8-46.8s21-46.8,46.8-46.8s46.8,21,46.8,46.8S75.4,97.1,49.6,97.1z M49.6,7.6
		C26,7.6,6.8,26.8,6.8,50.3c0,23.6,19.2,42.8,42.8,42.8c23.6,0,42.8-19.2,42.8-42.8C92.4,26.8,73.2,7.6,49.6,7.6z"/>
	<path fill="#BF212F" d="M34.3,39.1c1.8-1.8,4.8-1.8,6.7,0l8.9,8.9c0.8,0.8,1.2,1.8,1.3,2.8l2.3,2.3c0.6-2.4,0-5-1.9-6.8l-8.9-8.9
		c-2.8-2.8-7.3-2.8-10.1,0c-2.8,2.8-2.8,7.3,0,10.1l8.9,8.9c1.8,1.8,4.4,2.5,6.8,1.9L46,56.1c-1-0.1-2-0.6-2.8-1.3l-8.9-8.9
		C32.5,44,32.5,41,34.3,39.1z M49.8,41l2.3,2.3c1,0.1,2,0.6,2.8,1.3l8.9,8.9c1.8,1.8,1.8,4.8,0,6.7c-1.8,1.8-4.8,1.8-6.7,0l-8.9-8.9
		c-0.8-0.8-1.2-1.8-1.3-2.8l-2.3-2.3c-0.6,2.4,0,5,1.9,6.8l8.9,8.9c2.8,2.8,7.3,2.8,10.1,0c2.8-2.8,2.8-7.3,0-10.1l-8.9-8.9
		C54.8,41,52.2,40.4,49.8,41z"/>
</g>
</svg>
