<?xml version="1.0" encoding="utf-8"?>
<!-- Generator: Adobe Illustrator 18.0.0, SVG Export Plug-In . SVG Version: 6.00 Build 0)  -->
<!DOCTYPE svg [
	<!ENTITY ns_extend "http://ns.adobe.com/Extensibility/1.0/">
	<!ENTITY ns_ai "http://ns.adobe.com/AdobeIllustrator/10.0/">
	<!ENTITY ns_graphs "http://ns.adobe.com/Graphs/1.0/">
	<!ENTITY ns_vars "http://ns.adobe.com/Variables/1.0/">
	<!ENTITY ns_imrep "http://ns.adobe.com/ImageReplacement/1.0/">
	<!ENTITY ns_sfw "http://ns.adobe.com/SaveForWeb/1.0/">
	<!ENTITY ns_custom "http://ns.adobe.com/GenericCustomNamespace/1.0/">
	<!ENTITY ns_adobe_xpath "http://ns.adobe.com/XPath/1.0/">
]>
<svg version="1.2" baseProfile="tiny" id="Layer_1" xmlns:x="&ns_extend;" xmlns:i="&ns_ai;" xmlns:graph="&ns_graphs;"
	 xmlns="http://www.w3.org/2000/svg" xmlns:xlink="http://www.w3.org/1999/xlink" x="0px" y="0px" viewBox="0 0 100 100"
	 xml:space="preserve">
<metadata>
	<sfw  xmlns="&ns_sfw;">
		<slices></slices>
		<sliceSourceBounds  height="93.6" width="93.6" bottomLeftOrigin="true" x="3.2" y="-96.8"></sliceSourceBounds>
	</sfw>
</metadata>
<g>
	<path fill="#BF212F" d="M50,96.8c-25.8,0-46.8-21-46.8-46.8c0-25.8,21-46.8,46.8-46.8c25.8,0,46.8,21,46.8,46.8
		C96.8,75.8,75.8,96.8,50,96.8z M50,7.2C26.4,7.2,7.2,26.4,7.2,50S26.4,92.8,50,92.8S92.8,73.6,92.8,50S73.6,7.2,50,7.2z"/>
	<g>
		<path fill="#BF2230" d="M50.6,70.1c-11.5,0-20.9-9.4-20.9-20.9c0-11.5,9.4-20.9,20.9-20.9c11.5,0,20.9,9.4,20.9,20.9
			C71.5,60.7,62.1,70.1,50.6,70.1z M50.6,31.2c-9.9,0-18,8.1-18,18c0,9.9,8.1,18,18,18c9.9,0,18-8.1,18-18
			C68.5,39.3,60.5,31.2,50.6,31.2z"/>
		<g>
			<path fill="#BF2230" d="M48.9,54.4c-0.3,0-0.7-0.1-1-0.4l-5.9-5.1c-0.6-0.5-0.7-1.5-0.1-2.1c0.5-0.6,1.5-0.7,2.1-0.1l5.9,5.1
				c0.6,0.5,0.7,1.5,0.1,2.1C49.7,54.2,49.3,54.4,48.9,54.4z"/>
			<path fill="#BF2230" d="M48.9,54.4c-0.4,0-0.9-0.2-1.1-0.5c-0.5-0.6-0.4-1.6,0.2-2.1l9.2-7.5c0.6-0.5,1.6-0.4,2.1,0.2
				c0.5,0.6,0.4,1.6-0.2,2.1l-9.2,7.5C49.6,54.3,49.3,54.4,48.9,54.4z"/>
		</g>
	</g>
</g>
</svg>
