<?xml version="1.0" encoding="utf-8"?>
<!-- Generator: Adobe Illustrator 18.0.0, SVG Export Plug-In . SVG Version: 6.00 Build 0)  -->
<!DOCTYPE svg [
	<!ENTITY ns_extend "http://ns.adobe.com/Extensibility/1.0/">
	<!ENTITY ns_ai "http://ns.adobe.com/AdobeIllustrator/10.0/">
	<!ENTITY ns_graphs "http://ns.adobe.com/Graphs/1.0/">
	<!ENTITY ns_vars "http://ns.adobe.com/Variables/1.0/">
	<!ENTITY ns_imrep "http://ns.adobe.com/ImageReplacement/1.0/">
	<!ENTITY ns_sfw "http://ns.adobe.com/SaveForWeb/1.0/">
	<!ENTITY ns_custom "http://ns.adobe.com/GenericCustomNamespace/1.0/">
	<!ENTITY ns_adobe_xpath "http://ns.adobe.com/XPath/1.0/">
]>
<svg version="1.2" baseProfile="tiny" id="Layer_1" xmlns:x="&ns_extend;" xmlns:i="&ns_ai;" xmlns:graph="&ns_graphs;"
	 xmlns="http://www.w3.org/2000/svg" xmlns:xlink="http://www.w3.org/1999/xlink" x="0px" y="0px" viewBox="0 0 100 100"
	 xml:space="preserve">
<metadata>
	<sfw  xmlns="&ns_sfw;">
		<slices></slices>
		<sliceSourceBounds  height="93.6" width="93.6" bottomLeftOrigin="true" x="2.8" y="-97.1"></sliceSourceBounds>
	</sfw>
</metadata>
<g>
	<path fill="#BF212F" d="M49.6,97.1c-25.8,0-46.8-21-46.8-46.8s21-46.8,46.8-46.8s46.8,21,46.8,46.8S75.4,97.1,49.6,97.1z M49.6,7.6
		C26,7.6,6.8,26.8,6.8,50.3c0,23.6,19.2,42.8,42.8,42.8c23.6,0,42.8-19.2,42.8-42.8C92.4,26.8,73.2,7.6,49.6,7.6z"/>
	<path fill="#BF212F" d="M31.1,47.9l5.2-16.2c0.7-2.2,3-3.4,5.2-2.7l32,10.3c2.2,0.7,3.4,3,2.7,5.2l-5.2,16.2
		c-0.7,2.2-3,3.4-5.2,2.7l-32-10.3C31.6,52.4,30.4,50,31.1,47.9z M73.3,43.6c0.2-0.6-0.1-1.3-0.8-1.5l-32-10.3
		c-0.6-0.2-1.3,0.1-1.5,0.8l-5.2,16.2c-0.2,0.6,0.1,1.3,0.8,1.5l32,10.3c0.6,0.2,1.3-0.1,1.5-0.8L73.3,43.6z"/>
	<path fill="#FFFFFF" d="M64.8,65.9H28.2c-0.8,0-1.5-0.7-1.5-1.5V46.8c0-0.8,0.7-1.5,1.5-1.5h36.5c0.8,0,1.5,0.7,1.5,1.5v17.6
		C66.3,65.3,65.6,65.9,64.8,65.9z"/>
	<path fill="#BF212F" d="M26.2,63.5v-17c0-2.3,1.8-4.1,4.1-4.1h33.6c2.3,0,4.1,1.8,4.1,4.1v17c0,2.3-1.8,4.1-4.1,4.1H30.3
		C28,67.6,26.2,65.8,26.2,63.5z M65.1,46.5c0-0.6-0.5-1.2-1.2-1.2H30.3c-0.6,0-1.2,0.5-1.2,1.2v17c0,0.6,0.5,1.2,1.2,1.2h33.6
		c0.6,0,1.2-0.5,1.2-1.2V46.5z"/>
	<path fill="#BF212F" d="M67.9,51c0,0.8-0.7,1.5-1.5,1.5H28.2c-0.8,0-1.5-0.7-1.5-1.5c0-0.8,0.7-1.5,1.5-1.5h38.3
		C67.3,49.5,67.9,50.2,67.9,51z"/>
</g>
</svg>
